<svg width="52" height="53" viewBox="0 0 52 53" fill="none" xmlns="http://www.w3.org/2000/svg">
<path fill-rule="evenodd" clip-rule="evenodd" d="M16.8784 34.2604L12.2774 31.0359L2.21143 38.0903L6.05627 49.5045H12.6051L18.3161 52.685L27.5624 44.6543L22.5017 33.6903L16.8784 34.2604ZM17.6462 34.7985L16.8784 34.2604L10.1277 34.9448L7.54083 46.6842L12.6051 49.5045H13.8752L18.234 51.932L26.7946 44.4969L22.1092 34.346L17.6462 34.7985ZM17.6462 34.7985L22.3433 38.0903L18.4984 49.5045H13.8752L8.25792 46.3762L10.6529 35.5075L17.6462 34.7985Z" fill="white"/>
<path d="M29.4885 21.2414L31.8131 16.2051L32.7387 16.6209L33.6064 14.741L35.728 14.9561L35.8175 13.9751L41.5015 14.5513L41.412 15.5324L43.5099 15.7451L43.9468 17.7281L44.9376 17.5357L46.1259 22.9282L45.1351 23.1206L45.5752 25.1179L43.7316 26.1446L44.2452 27.0026L39.2956 29.7591L38.782 28.901L36.9384 29.9278L35.3653 28.5615L34.6972 29.2929L30.4499 25.604L31.118 24.8726L29.5561 23.516L30.414 21.6573L29.4885 21.2414Z" stroke="white" stroke-width="2" stroke-dasharray="4 4"/>
<path d="M10.5839 0L20.6499 7.05437L16.805 18.4686H4.36286L0.518015 7.05437L10.5839 0Z" fill="white"/>
</svg>
