<svg width="85" height="85" viewBox="0 0 85 85" fill="none" xmlns="http://www.w3.org/2000/svg">
<path d="M5.54004 21.28L21.29 5.53C18.49 7.13 15.9 9.03999 13.55 11.21L11.22 13.54C9.05003 15.88 7.14004 18.48 5.54004 21.28Z" fill="#FFE500" fill-opacity="0.9"/>
<path d="M0.839966 33.8L33.81 0.829987C32.9 1.00999 32 1.22999 31.11 1.46999L1.47998 31.1C1.22998 31.99 1.01997 32.89 0.839966 33.8Z" fill="#FFE500" fill-opacity="0.9"/>
<path d="M0 42.18C0 42.27 0 42.36 0 42.45L42.45 0C42.36 0 42.27 0 42.18 0C41.57 0 40.96 0.0199933 40.35 0.0399933L0.039978 40.35C0.019978 40.96 0 41.56 0 42.18Z" fill="#FFE500" fill-opacity="0.9"/>
<path d="M0.659912 49.61L49.6299 0.639984C49.0399 0.539984 48.4399 0.439985 47.8499 0.359985L0.389893 47.82C0.459893 48.43 0.549912 49.02 0.659912 49.61Z" fill="#FFE500" fill-opacity="0.9"/>
<path d="M2.26001 55.83L55.84 2.25C55.32 2.07 54.8 1.91 54.28 1.75L1.77002 54.26C1.92002 54.79 2.08001 55.31 2.26001 55.83Z" fill="#FFE500" fill-opacity="0.9"/>
<path d="M4.5899 61.32L61.3399 4.56999C60.8799 4.33999 60.4199 4.10999 59.9499 3.89999L3.90991 59.93C4.12991 60.4 4.3499 60.86 4.5899 61.32Z" fill="#FFE500" fill-opacity="0.9"/>
<path d="M7.50989 66.21L66.2199 7.49998C65.8099 7.21998 65.3999 6.93998 64.9899 6.66998L6.68994 64.97C6.95994 65.39 7.22989 65.8 7.50989 66.21Z" fill="#FFE500" fill-opacity="0.9"/>
<path d="M10.98 70.56L70.57 10.97C70.21 10.64 69.84 10.32 69.47 10.01L10.01 69.47C10.33 69.84 10.65 70.2 10.98 70.56Z" fill="#FFE500" fill-opacity="0.9"/>
<path d="M14.96 74.4L74.41 14.95C74.1 14.58 73.78 14.21 73.45 13.85L13.86 73.44C14.22 73.77 14.59 74.09 14.96 74.4Z" fill="#FFE500" fill-opacity="0.9"/>
<path d="M19.46 77.72L77.74 19.44C77.47 19.02 77.2 18.61 76.91 18.21L18.22 76.9C18.63 77.18 19.04 77.46 19.46 77.72Z" fill="#FFE500" fill-opacity="0.9"/>
<path d="M24.5099 80.49L80.5 24.5C80.28 24.03 80.06 23.57 79.83 23.11L23.12 79.82C23.58 80.05 24.0399 80.27 24.5099 80.49Z" fill="#FFE500" fill-opacity="0.9"/>
<path d="M30.1899 82.63L82.6499 30.18C82.4899 29.65 82.3299 29.13 82.1599 28.62L28.6299 82.15C29.1399 82.31 29.6599 82.47 30.1899 82.63Z" fill="#FFE500" fill-opacity="0.9"/>
<path d="M36.6299 84L84.0099 36.62C83.9299 36.02 83.84 35.43 83.74 34.83L34.85 83.72C35.44 83.83 36.0299 83.92 36.6299 84Z" fill="#FFE500" fill-opacity="0.9"/>
<path d="M42.1901 84.37C42.8401 84.37 43.49 84.35 44.13 84.32L84.33 44.12C84.36 43.48 84.38 42.83 84.38 42.18C84.38 42.13 84.38 42.07 84.38 42.02L42.04 84.36C42.08 84.36 42.1401 84.37 42.1901 84.37Z" fill="#FFE500" fill-opacity="0.9"/>
<path d="M53.42 82.85L82.86 53.41C83.11 52.52 83.3299 51.61 83.5099 50.7L50.7 83.51C51.62 83.32 52.53 83.1 53.42 82.85Z" fill="#FFE500" fill-opacity="0.9"/>
<path d="M78.69 63.34L63.35 78.68C69.7 74.99 75 69.69 78.69 63.34Z" fill="#FFE500" fill-opacity="0.9"/>
</svg>
