<svg width="47" height="46" viewBox="0 0 47 46" fill="none" xmlns="http://www.w3.org/2000/svg">
<path d="M13.8937 9.80515H7.48122V17.2864L0 17.2864L2.80298e-07 23.6988H7.48122V31.1801H13.8937V23.6988H21.3749V17.2864L13.8937 17.2864V9.80515Z" fill="white"/>
<path fill-rule="evenodd" clip-rule="evenodd" d="M34.6549 0.685181H30.1041V5.99443H24.7949V10.5452H30.1041V15.8545H34.6549V10.5452H39.9642V5.99443H34.6549V0.685181ZM30.8948 6.78508H25.5855V11.3359H30.8948V16.6451H35.4455V11.3359H40.7548V6.78508H35.4455V1.47582H30.8948V6.78508ZM31.1797 1.76082V7.07008H25.8705L25.8705 11.0509H31.1797V16.3601H35.1605V11.0509H40.4698V7.07007H35.1605V1.76082H31.1797Z" fill="white"/>
<path d="M37.7516 33.0437L41.6317 29.1635L43.3414 30.8731L39.4612 34.7533L38.047 36.1675L39.4612 37.5818L43.3414 41.4619L41.6317 43.1716L37.7516 39.2914L36.3373 37.8772L34.9231 39.2914L31.0429 43.1716L29.3333 41.4619L33.2135 37.5818L34.6277 36.1675L33.2135 34.7533L29.3333 30.8731L31.0429 29.1635L34.9231 33.0437L36.3373 34.4579L37.7516 33.0437Z" stroke="white" stroke-width="4"/>
</svg>
