<svg width="1440" height="1024" viewBox="0 0 1440 1024" fill="none" xmlns="http://www.w3.org/2000/svg">
<path d="M1512.54 -33C1380.36 7.71209 1173.13 90.1032 1278.56 350.191C1412.72 681.171 1740.57 594.463 1594.96 849.924" stroke="#3F37C9" stroke-opacity="0.5" stroke-width="8.2894"/>
<path d="M1475.64 27.0761C1343.46 67.7882 1136.23 150.179 1241.66 410.267C1375.82 741.247 1703.67 654.54 1558.06 910" stroke="#3F37C9" stroke-opacity="0.5" stroke-width="8.2894"/>
<path d="M1436.99 82.3952C1304.81 123.107 1097.58 205.498 1203.01 465.586C1337.17 796.566 1665.02 709.859 1519.41 965.319" stroke="#3F37C9" stroke-opacity="0.5" stroke-width="8.2894"/>
<path d="M1396.4 131.611C1264.22 172.323 1056.99 254.714 1162.42 514.802C1296.58 845.782 1624.43 759.075 1478.82 1014.54" stroke="#3F37C9" stroke-opacity="0.5" stroke-width="8.2894"/>
<path d="M1353.78 173.127C1221.61 213.839 1014.38 296.23 1119.8 556.318C1253.96 887.298 1581.81 800.59 1436.2 1056.05" stroke="#3F37C9" stroke-opacity="0.5" stroke-width="8.2894"/>
<path d="M1309.27 205.332C1177.09 246.044 969.858 328.436 1075.28 588.523C1209.45 919.503 1537.29 832.796 1391.69 1088.26" stroke="#3F37C9" stroke-opacity="0.5" stroke-width="8.2894"/>
<path d="M1263.25 227.091C1131.07 267.803 923.839 350.194 1029.27 610.282C1163.43 941.262 1491.28 854.555 1345.67 1110.02" stroke="#3F37C9" stroke-opacity="0.5" stroke-width="8.2894"/>
<path d="M1216.32 238.301C1084.15 279.013 876.917 361.404 982.343 621.492C1116.5 952.472 1444.35 865.765 1298.75 1121.23" stroke="#3F37C9" stroke-opacity="0.5" stroke-width="8.2894"/>
<path d="M1169.09 240.076C1036.91 280.788 829.682 363.179 935.108 623.267C1069.27 954.247 1397.12 867.539 1251.51 1123" stroke="#3F37C9" stroke-opacity="0.5" stroke-width="8.2894"/>
<path d="M1121.93 234.376C989.752 275.088 782.522 357.479 887.948 617.567C1022.11 948.547 1349.96 861.84 1204.35 1117.3" stroke="#3F37C9" stroke-opacity="0.5" stroke-width="8.2894"/>
<path d="M1074.99 223.409C942.816 264.122 735.586 346.513 841.012 606.6C975.173 937.58 1303.02 850.873 1157.41 1106.33" stroke="#3F37C9" stroke-opacity="0.5" stroke-width="8.2894"/>
<path d="M1028.27 209.204C896.091 249.916 688.861 332.307 794.286 592.395C928.448 923.375 1256.3 836.668 1110.69 1092.13" stroke="#3F37C9" stroke-opacity="0.5" stroke-width="8.2894"/>
<path d="M981.664 193.431C849.487 234.143 642.257 316.534 747.683 576.622C881.844 907.602 1209.69 820.895 1064.08 1076.36" stroke="#3F37C9" stroke-opacity="0.5" stroke-width="8.2894"/>
<path d="M935.082 177.393C802.904 218.105 595.674 300.496 701.1 560.584C835.262 891.564 1163.11 804.857 1017.5 1060.32" stroke="#3F37C9" stroke-opacity="0.5" stroke-width="8.2894"/>
<path d="M888.441 162.073C756.264 202.785 549.034 285.176 654.459 545.264C788.621 876.244 1116.47 789.536 970.861 1045" stroke="#3F37C9" stroke-opacity="0.5" stroke-width="8.2894"/>
<path d="M841.692 148.188C709.515 188.9 502.285 271.291 607.71 531.379C741.872 862.359 1069.72 775.651 924.112 1031.11" stroke="#3F37C9" stroke-opacity="0.5" stroke-width="8.2894"/>
<path d="M794.814 136.252C662.637 176.964 455.407 259.355 560.833 519.442C694.994 850.422 1022.84 763.715 877.235 1019.18" stroke="#3F37C9" stroke-opacity="0.5" stroke-width="8.2894"/>
<path d="M747.808 126.611C615.631 167.323 408.401 249.714 513.827 509.801C647.988 840.781 975.837 754.074 830.228 1009.53" stroke="#3F37C9" stroke-opacity="0.5" stroke-width="8.2894"/>
<path d="M700.404 119.395C568.226 160.107 360.996 242.498 466.422 502.586C600.584 833.566 928.433 746.859 782.824 1002.32" stroke="#3F37C9" stroke-opacity="0.5" stroke-width="8.2894"/>
<path d="M653.239 113.841C521.061 154.553 313.832 236.945 419.257 497.032C553.419 828.012 881.268 741.305 735.659 996.765" stroke="#3F37C9" stroke-opacity="0.5" stroke-width="8.2894"/>
<path d="M606.04 109.675C473.862 150.387 266.633 232.778 372.058 492.866C506.22 823.846 834.069 737.139 688.46 992.599" stroke="#3F37C9" stroke-opacity="0.5" stroke-width="8.2894"/>
<path d="M558.813 107.087C426.636 147.799 219.406 230.19 324.832 490.278C458.993 821.258 786.842 734.55 641.234 990.011" stroke="#3F37C9" stroke-opacity="0.5" stroke-width="8.2894"/>
<path d="M511.571 106.315C379.394 147.027 172.164 229.418 277.59 489.506C411.751 820.486 739.6 733.779 593.991 989.239" stroke="#3F37C9" stroke-opacity="0.5" stroke-width="8.2894"/>
<path d="M464.332 107.665C332.155 148.377 124.925 230.768 230.351 490.856C364.512 821.836 692.361 735.128 546.753 990.589" stroke="#3F37C9" stroke-opacity="0.5" stroke-width="8.2894"/>
<path d="M417.128 111.536C284.95 152.248 77.7203 234.639 183.146 494.727C317.308 825.707 645.157 739 499.548 994.46" stroke="#3F37C9" stroke-opacity="0.5" stroke-width="8.2894"/>
<path d="M370.007 118.472C237.829 159.184 30.5991 241.575 136.025 501.663C270.187 832.643 598.036 745.935 452.427 1001.4" stroke="#3F37C9" stroke-opacity="0.5" stroke-width="8.2894"/>
<path d="M323.059 129.232C190.882 169.944 -16.3484 252.335 89.0773 512.423C223.239 843.403 551.088 756.695 405.479 1012.16" stroke="#3F37C9" stroke-opacity="0.5" stroke-width="8.2894"/>
<path d="M276.445 144.915C144.267 185.627 -62.9628 268.018 42.463 528.106C176.625 859.086 504.474 772.378 358.865 1027.84" stroke="#3F37C9" stroke-opacity="0.5" stroke-width="8.2894"/>
<path d="M230.486 167.088C98.3088 207.8 -108.921 290.191 -3.49541 550.279C130.666 881.259 458.515 794.551 312.906 1050.01" stroke="#3F37C9" stroke-opacity="0.5" stroke-width="8.2894"/>
<path d="M185.874 196.664C53.6967 237.376 -153.533 319.767 -48.1075 579.855C86.0542 910.835 413.903 824.127 268.294 1079.59" stroke="#3F37C9" stroke-opacity="0.5" stroke-width="8.2894"/>
</svg>
