<svg width="130" height="130" viewBox="0 0 130 130" fill="none" xmlns="http://www.w3.org/2000/svg">
<mask id="mask0_21_518" style="mask-type:luminance" maskUnits="userSpaceOnUse" x="9" y="3" width="112" height="124">
<path d="M9.80783 3.33289H120.178V126.638H9.80783V3.33289Z" fill="white"/>
</mask>
<g mask="url(#mask0_21_518)">
<path d="M120.161 3.33276H9.82452L19.56 113.658L64.9929 126.638L110.426 113.658L120.161 3.33276Z" fill="#0277BD"/>
</g>
<path d="M64.9943 13.0696V116.581L101.34 106.197L109.454 13.0696H64.9943Z" fill="#039BE5"/>
<path d="M94.5256 29.2935H64.9943V42.2728H80.8959L79.9223 55.2522H64.9943V68.2318H79.2733L78.2996 82.8338L64.9943 87.3764V101.005L90.6313 92.5683L92.903 55.2522L94.5256 29.2935Z" fill="white"/>
<path d="M64.9942 29.2935V42.2728H36.1119L35.1382 29.2935H64.9942ZM50.0662 55.2522L50.7152 68.2318H64.9942V55.2522H50.0662ZM51.3642 74.7214H38.3835L39.3571 92.5683L64.9942 101.005V87.3764L51.6888 82.8338L51.3642 74.7214Z" fill="#EEEEEE"/>
</svg>
