<svg width="127" height="127" viewBox="0 0 127 127" fill="none" xmlns="http://www.w3.org/2000/svg">
<mask id="mask0_16_209" style="mask-type:luminance" maskUnits="userSpaceOnUse" x="3" y="3" width="121" height="121">
<path d="M3.13354 3.13574H123.847V123.849H3.13354V3.13574Z" fill="white"/>
</mask>
<g mask="url(#mask0_16_209)">
<path d="M121.569 58.1181L68.8668 5.41546C68.7768 5.3255 68.6849 5.23753 68.5906 5.1522C68.4964 5.06687 68.4001 4.98353 68.3016 4.90283C68.2034 4.82213 68.1031 4.74408 68.0009 4.66801C67.8988 4.59228 67.7949 4.51919 67.6891 4.44841C67.5832 4.37763 67.4757 4.3095 67.3666 4.24435C67.2578 4.17887 67.147 4.11603 67.0349 4.05617C66.9228 3.99597 66.809 3.93876 66.6939 3.88452C66.5791 3.82995 66.4627 3.77868 66.3453 3.72974C66.2276 3.68112 66.1092 3.63548 65.9895 3.59248C65.8694 3.54949 65.7487 3.5098 65.627 3.47276C65.5053 3.43572 65.3829 3.40198 65.2592 3.37089C65.1358 3.34014 65.0118 3.31236 64.8871 3.28722C64.7624 3.26242 64.6371 3.24092 64.5111 3.22207C64.3854 3.20355 64.2591 3.188 64.1324 3.17543C64.0057 3.16287 63.8791 3.15361 63.7521 3.14732C63.6251 3.14104 63.4977 3.13806 63.3704 3.13806C63.2434 3.13806 63.1161 3.14104 62.9891 3.14732C62.8621 3.15361 62.7354 3.16287 62.6087 3.17543C62.4821 3.188 62.3557 3.20355 62.2301 3.22207C62.104 3.24092 61.9787 3.26242 61.854 3.28722C61.7293 3.31236 61.6053 3.34014 61.4819 3.37089C61.3582 3.40198 61.2359 3.43572 61.1142 3.47276C60.9925 3.5098 60.8717 3.54949 60.7517 3.59248C60.632 3.63548 60.5132 3.68112 60.3958 3.72974C60.2784 3.77868 60.162 3.82995 60.0472 3.88452C59.9321 3.93876 59.8184 3.99597 59.7063 4.05617C59.5941 4.11603 59.4833 4.17887 59.3745 4.24435C59.2654 4.3095 59.1579 4.37763 59.0521 4.44841C58.9462 4.51919 58.8424 4.59228 58.7402 4.66801C58.638 4.74408 58.5378 4.82213 58.4396 4.90283C58.341 4.98353 58.2448 5.06687 58.1505 5.1522C58.0563 5.23753 57.9643 5.3255 57.8743 5.41546L46.9348 16.355L60.8168 30.237C64.0458 29.1053 67.7426 29.8788 70.3154 32.4516C70.4675 32.6037 70.614 32.7615 70.7553 32.9242C70.8965 33.0866 71.0317 33.2543 71.1611 33.4262C71.2907 33.5985 71.4137 33.7748 71.5308 33.9557C71.6479 34.1363 71.7587 34.3209 71.8629 34.5094C71.967 34.6979 72.0646 34.8897 72.1552 35.0852C72.2462 35.2803 72.3299 35.4787 72.4069 35.6798C72.4837 35.8809 72.5534 36.0846 72.6163 36.2907C72.6791 36.4967 72.7343 36.7044 72.7826 36.9144C72.8306 37.1245 72.8716 37.3358 72.9047 37.5484C72.9381 37.7611 72.9642 37.9751 72.9824 38.1894C73.0009 38.404 73.0118 38.619 73.0155 38.8343C73.0188 39.0496 73.0145 39.2649 73.0029 39.4799C72.9913 39.6949 72.9721 39.9095 72.9457 40.1232C72.9189 40.3368 72.8848 40.5491 72.8435 40.7605C72.8018 40.9718 72.7532 41.1815 72.697 41.3895C72.6407 41.5976 72.5776 41.8033 72.5071 42.0067L85.8874 55.387C89.124 54.2704 92.8586 54.9908 95.4425 57.5824C95.5497 57.6895 95.6542 57.799 95.7561 57.9114C95.8576 58.0236 95.9565 58.138 96.0527 58.2551C96.149 58.3721 96.2422 58.4915 96.3322 58.6132C96.4225 58.735 96.5098 58.8586 96.5941 58.9847C96.6781 59.1103 96.7592 59.2383 96.8372 59.3683C96.9149 59.4983 96.9897 59.6299 97.0611 59.7635C97.1326 59.8971 97.2007 60.0321 97.2655 60.169C97.3303 60.3059 97.3915 60.4445 97.4497 60.5844C97.5076 60.7243 97.5622 60.8655 97.6131 61.0081C97.6644 61.1506 97.7117 61.2945 97.7557 61.4393C97.8 61.5842 97.8403 61.7304 97.877 61.8772C97.9137 62.0241 97.9472 62.1719 97.9766 62.3204C98.0063 62.4689 98.0322 62.618 98.0543 62.7679C98.0765 62.9177 98.0953 63.0682 98.1102 63.2186C98.1247 63.3695 98.136 63.5206 98.1436 63.6717C98.1509 63.8229 98.1549 63.9744 98.1549 64.1258C98.1549 64.2773 98.1509 64.4288 98.1436 64.5799C98.1363 64.7314 98.1251 64.8822 98.1102 65.033C98.0953 65.1838 98.0768 65.334 98.0546 65.4838C98.0325 65.6336 98.0067 65.7828 97.9769 65.9313C97.9475 66.0801 97.9144 66.2276 97.8774 66.3745C97.8407 66.5216 97.8003 66.6675 97.7563 66.8124C97.7123 66.9572 97.665 67.1011 97.6138 67.2436C97.5628 67.3865 97.5083 67.5277 97.4504 67.6676C97.3925 67.8075 97.331 67.9458 97.2662 68.0827C97.2017 68.2196 97.1336 68.3549 97.0621 68.4885C96.9907 68.6221 96.9159 68.7537 96.8382 68.8837C96.7602 69.0137 96.6791 69.1417 96.5951 69.2677C96.5108 69.3934 96.4238 69.5174 96.3335 69.6388C96.2432 69.7605 96.15 69.8799 96.0541 69.9969C95.9578 70.114 95.8589 70.2288 95.7571 70.3409C95.6555 70.453 95.551 70.5628 95.4439 70.67C95.3367 70.7768 95.2272 70.8813 95.1148 70.9832C95.0027 71.0847 94.8879 71.1836 94.7708 71.2795C94.6537 71.3758 94.5344 71.469 94.4126 71.559C94.2909 71.6493 94.1673 71.7366 94.0412 71.8206C93.9152 71.9046 93.7876 71.9856 93.6576 72.0637C93.5276 72.1414 93.3957 72.2158 93.262 72.2872C93.1288 72.3587 92.9935 72.4268 92.8562 72.4913C92.7193 72.5561 92.5811 72.6176 92.4412 72.6755C92.3013 72.7334 92.1597 72.788 92.0172 72.8389C91.8746 72.8898 91.7308 72.9371 91.5859 72.9811C91.441 73.0251 91.2949 73.0655 91.148 73.1022C91.0012 73.1389 90.8533 73.1719 90.7048 73.2017C90.5563 73.2311 90.4069 73.2569 90.257 73.2791C90.1072 73.3013 89.9571 73.3198 89.8063 73.3347C89.6554 73.3492 89.5046 73.3605 89.3531 73.3677C89.202 73.375 89.0505 73.379 88.8991 73.3786C88.7476 73.3786 88.5965 73.375 88.445 73.3674C88.2938 73.3598 88.1427 73.3489 87.9922 73.3337C87.8414 73.3188 87.6912 73.3003 87.5414 73.2781C87.3916 73.2556 87.2424 73.2298 87.0936 73.2001C86.9451 73.1706 86.7976 73.1372 86.6504 73.1005C86.5036 73.0635 86.3577 73.0231 86.2129 72.9791C86.068 72.9351 85.9242 72.8875 85.7816 72.8363C85.6391 72.7853 85.4978 72.7308 85.3579 72.6725C85.218 72.6147 85.0795 72.5532 84.9426 72.4883C84.8056 72.4235 84.6707 72.3554 84.5371 72.2839C84.4035 72.2125 84.2718 72.1377 84.1419 72.0597C84.0122 71.982 83.8842 71.9009 83.7582 71.8166C83.6325 71.7323 83.5085 71.645 83.3871 71.5547C83.2654 71.4644 83.146 71.3711 83.0293 71.2752C82.9122 71.179 82.7974 71.0801 82.6853 70.9782C82.5732 70.8764 82.4634 70.7718 82.3566 70.6647C79.6406 67.9487 78.9689 63.9502 80.3421 60.6039L67.8634 48.1252V80.9633C68.7752 81.4144 69.5924 81.9978 70.3154 82.7135C70.4225 82.8206 70.5267 82.9301 70.6286 83.0422C70.7301 83.1543 70.829 83.2691 70.9249 83.3862C71.0212 83.5033 71.1141 83.6223 71.2044 83.744C71.2947 83.8657 71.3817 83.9894 71.4657 84.1154C71.55 84.2411 71.631 84.3691 71.7087 84.4988C71.7865 84.6287 71.8612 84.7604 71.9327 84.894C72.0038 85.0276 72.0719 85.1625 72.1367 85.2994C72.2012 85.4364 72.2627 85.5746 72.3206 85.7145C72.3785 85.8544 72.433 85.9956 72.484 86.1382C72.5349 86.2807 72.5825 86.4246 72.6265 86.5695C72.6705 86.7143 72.7109 86.8602 72.7476 87.007C72.7843 87.1538 72.8174 87.3014 72.8471 87.4499C72.8766 87.5984 72.9024 87.7475 72.9245 87.8973C72.947 88.0471 72.9655 88.1973 72.9804 88.3478C72.995 88.4986 73.0062 88.6494 73.0138 88.8009C73.0211 88.952 73.0247 89.1032 73.0247 89.2546C73.0247 89.4061 73.0211 89.5573 73.0138 89.7084C73.0062 89.8599 72.995 90.0107 72.9804 90.1615C72.9655 90.312 72.947 90.4621 72.9245 90.612C72.9024 90.7618 72.8766 90.9109 72.8471 91.0594C72.8174 91.2079 72.7843 91.3554 72.7476 91.5023C72.7109 91.6491 72.6705 91.795 72.6265 91.9398C72.5825 92.0847 72.5349 92.2286 72.484 92.3711C72.433 92.5136 72.3785 92.6549 72.3206 92.7948C72.2627 92.9347 72.2012 93.0729 72.1367 93.2098C72.0719 93.3467 72.0038 93.4817 71.9327 93.6153C71.8612 93.7489 71.7865 93.8805 71.7087 94.0105C71.631 94.1402 71.55 94.2682 71.4657 94.3938C71.3817 94.5199 71.2947 94.6435 71.2044 94.7653C71.1141 94.887 71.0212 95.006 70.9249 95.1231C70.829 95.2402 70.7301 95.3549 70.6286 95.4671C70.5267 95.5792 70.4225 95.6886 70.3154 95.7958C70.2082 95.903 70.0988 96.0071 69.9866 96.109C69.8742 96.2105 69.7598 96.3094 69.6427 96.4053C69.5256 96.5016 69.4062 96.5945 69.2848 96.6848C69.1631 96.7751 69.0394 96.8621 68.9134 96.9461C68.7878 97.0304 68.6598 97.1114 68.5301 97.1892C68.4001 97.2669 68.2685 97.3416 68.1349 97.4131C68.0013 97.4842 67.8663 97.5523 67.7294 97.6171C67.5925 97.6819 67.4543 97.7431 67.3144 97.801C67.1745 97.8589 67.0332 97.9135 66.8907 97.9644C66.7481 98.0157 66.6043 98.0629 66.4594 98.1069C66.3146 98.1509 66.1687 98.1913 66.0219 98.228C65.875 98.2647 65.7275 98.2981 65.579 98.3275C65.4305 98.357 65.2814 98.3828 65.1315 98.4053C64.9817 98.4274 64.8316 98.4459 64.6811 98.4608C64.5303 98.4757 64.3795 98.4866 64.228 98.4942C64.0768 98.5015 63.9257 98.5051 63.7742 98.5051C63.6228 98.5051 63.4716 98.5015 63.3201 98.4942C63.169 98.4866 63.0182 98.4757 62.8674 98.4608C62.7169 98.4459 62.5667 98.4274 62.4169 98.4053C62.2671 98.3828 62.1179 98.357 61.9694 98.3275C61.8209 98.2981 61.6734 98.2647 61.5266 98.228C61.3797 98.1913 61.2339 98.1509 61.089 98.1069C60.9442 98.0629 60.8003 98.0153 60.6578 97.9644C60.5152 97.9135 60.374 97.8589 60.2341 97.801C60.0942 97.7431 59.956 97.6819 59.819 97.6171C59.6821 97.5523 59.5472 97.4842 59.4136 97.4131C59.2799 97.3416 59.1483 97.2669 59.0183 97.1892C58.8887 97.1114 58.7607 97.0304 58.6347 96.9461C58.509 96.8621 58.3853 96.7751 58.2636 96.6848C58.1419 96.5945 58.0228 96.5016 57.9058 96.4053C57.7887 96.3094 57.6739 96.2105 57.5618 96.109C57.4497 96.0071 57.3402 95.903 57.2331 95.7958C57.1259 95.689 57.0214 95.5792 56.9195 95.4671C56.8177 95.3549 56.7188 95.2405 56.6225 95.1234C56.5266 95.0067 56.4334 94.8873 56.3431 94.7656C56.2528 94.6442 56.1655 94.5205 56.0811 94.3945C55.9971 94.2688 55.9158 94.1408 55.838 94.0112C55.76 93.8812 55.6852 93.7496 55.6138 93.616C55.5424 93.4827 55.4742 93.3474 55.4094 93.2105C55.3446 93.0736 55.2831 92.9353 55.2252 92.7954C55.1673 92.6555 55.1128 92.5143 55.0615 92.3718C55.0106 92.2292 54.9629 92.0854 54.919 91.9405C54.875 91.7956 54.8346 91.6498 54.7976 91.5029C54.7609 91.3561 54.7278 91.2083 54.698 91.0598C54.6686 90.9113 54.6425 90.7621 54.6203 90.6123C54.5981 90.4625 54.5796 90.3123 54.5647 90.1615C54.5499 90.011 54.5386 89.8599 54.5313 89.7087C54.5237 89.5576 54.5201 89.4061 54.5201 89.2546C54.5201 89.1032 54.5237 88.952 54.5313 88.8006C54.5386 88.6494 54.5499 88.4983 54.5647 88.3478C54.5796 88.197 54.5981 88.0468 54.6203 87.897C54.6425 87.7472 54.6686 87.598 54.698 87.4495C54.7278 87.301 54.7609 87.1532 54.7976 87.0063C54.8346 86.8595 54.875 86.7136 54.919 86.5688C54.9629 86.4239 55.0106 86.2801 55.0615 86.1375C55.1128 85.995 55.1673 85.8538 55.2252 85.7139C55.2831 85.574 55.3446 85.4357 55.4094 85.2988C55.4742 85.1619 55.5424 85.0269 55.6138 84.8933C55.6852 84.7597 55.76 84.6281 55.838 84.4981C55.9158 84.3684 55.9971 84.2405 56.0811 84.1148C56.1655 83.9888 56.2528 83.8651 56.3431 83.7437C56.4334 83.622 56.5266 83.5026 56.6225 83.3858C56.7188 83.2688 56.8177 83.1543 56.9195 83.0422C57.0214 82.9301 57.1259 82.8203 57.2331 82.7135C58.127 81.8232 59.1192 81.1481 60.2622 80.6954V47.552C59.1606 47.0992 58.127 46.4315 57.2331 45.5339C57.0717 45.3728 56.9166 45.2058 56.7677 45.0335C56.6189 44.8609 56.4767 44.6829 56.3408 44.5C56.2052 44.3168 56.0762 44.129 55.9545 43.9365C55.8324 43.744 55.718 43.5472 55.6105 43.3461C55.5034 43.145 55.4035 42.9403 55.3115 42.7316C55.2193 42.5233 55.1349 42.3119 55.0585 42.097C54.9818 41.8823 54.9133 41.6654 54.8531 41.4454C54.7926 41.2258 54.7404 41.0039 54.6964 40.7803C54.6524 40.5568 54.6167 40.3319 54.5892 40.1056C54.5618 39.8794 54.5426 39.6525 54.532 39.4247C54.5214 39.1971 54.5194 38.9693 54.5257 38.7417C54.5317 38.5138 54.5466 38.2863 54.5694 38.0598C54.5925 37.8329 54.6239 37.6073 54.6636 37.3831C54.7033 37.1585 54.7513 36.9359 54.8075 36.715C54.8637 36.4941 54.9282 36.2758 55.0006 36.0595C55.0727 35.8435 55.1531 35.6305 55.2414 35.4202L41.5479 21.7343L5.40912 57.835C5.31916 57.925 5.23152 58.0173 5.14586 58.1115C5.0602 58.2058 4.97719 58.302 4.89649 58.4003C4.81546 58.4988 4.73741 58.599 4.66134 58.7012C4.58561 58.8034 4.51218 58.9073 4.44141 59.0131C4.37063 59.1189 4.3025 59.2264 4.23702 59.3356C4.17153 59.4447 4.10902 59.5555 4.04883 59.6676C3.98897 59.7797 3.93142 59.8935 3.87718 60.0086C3.82261 60.1234 3.77102 60.2398 3.7224 60.3575C3.67345 60.4749 3.62781 60.5937 3.58482 60.7134C3.54182 60.8334 3.50214 60.9541 3.46509 61.0759C3.42805 61.1976 3.39399 61.3203 3.36323 61.4436C3.33214 61.5673 3.30436 61.6913 3.27956 61.816C3.25475 61.941 3.23292 62.0664 3.21407 62.1924C3.19555 62.3181 3.18001 62.4444 3.16744 62.5711C3.15487 62.6978 3.14561 62.8248 3.13933 62.9518C3.13304 63.0788 3.13007 63.2061 3.13007 63.3334C3.13007 63.4607 3.13304 63.5877 3.13933 63.7147C3.14561 63.8421 3.15487 63.9691 3.16744 64.0954C3.18001 64.2221 3.19555 64.3484 3.21407 64.4744C3.23292 64.6004 3.25475 64.7258 3.27956 64.8505C3.30436 64.9752 3.33214 65.0995 3.36323 65.2229C3.39399 65.3462 3.42805 65.4689 3.46509 65.5906C3.50214 65.7127 3.54182 65.8334 3.58482 65.9531C3.62781 66.0728 3.67345 66.1916 3.7224 66.3093C3.77102 66.4267 3.82261 66.5431 3.87718 66.6582C3.93142 66.7733 3.98897 66.8868 4.04883 66.9989C4.10902 67.1113 4.17153 67.2218 4.23702 67.3309C4.3025 67.4401 4.37063 67.5476 4.44141 67.6534C4.51218 67.7592 4.58561 67.8634 4.66134 67.9656C4.73741 68.0678 4.81546 68.168 4.89649 68.2662C4.97719 68.3645 5.0602 68.461 5.14586 68.5553C5.23152 68.6496 5.31916 68.7415 5.40912 68.8315L58.1158 121.53C58.2057 121.62 58.2977 121.708 58.3919 121.793C58.4862 121.879 58.5824 121.962 58.681 122.043C58.7792 122.123 58.8794 122.202 58.9816 122.278C59.0838 122.353 59.1877 122.427 59.2935 122.498C59.3993 122.568 59.5068 122.636 59.6156 122.702C59.7248 122.767 59.8356 122.83 59.9477 122.89C60.0598 122.95 60.1736 123.007 60.2887 123.061C60.4034 123.116 60.5199 123.167 60.6373 123.216C60.7547 123.265 60.8734 123.31 60.9931 123.353C61.1132 123.396 61.2339 123.436 61.3556 123.473C61.4773 123.51 61.5997 123.544 61.7234 123.575C61.8467 123.606 61.9708 123.634 62.0954 123.658C62.2201 123.683 62.3455 123.705 62.4715 123.724C62.5972 123.742 62.7235 123.758 62.8502 123.771C62.9765 123.783 63.1035 123.792 63.2305 123.798C63.3575 123.805 63.4848 123.808 63.6118 123.808C63.7392 123.808 63.8665 123.805 63.9935 123.798C64.1205 123.792 64.2472 123.783 64.3738 123.771C64.5005 123.758 64.6268 123.742 64.7525 123.724C64.8785 123.705 65.0039 123.683 65.1286 123.658C65.2532 123.634 65.3773 123.606 65.5006 123.575C65.6243 123.544 65.7467 123.51 65.8684 123.473C65.9901 123.436 66.1108 123.396 66.2309 123.353C66.3506 123.31 66.469 123.265 66.5867 123.216C66.7042 123.167 66.8206 123.116 66.9353 123.061C67.0504 123.007 67.1642 122.95 67.2763 122.89C67.3884 122.83 67.4992 122.767 67.608 122.702C67.7172 122.636 67.8247 122.568 67.9305 122.498C68.0363 122.427 68.1402 122.353 68.2424 122.278C68.3446 122.202 68.4448 122.123 68.543 122.043C68.6416 121.962 68.7378 121.879 68.8321 121.793C68.9263 121.708 69.0183 121.62 69.1082 121.53L121.569 69.1519C121.659 69.0623 121.747 68.97 121.833 68.8758C121.918 68.7815 122.002 68.6853 122.082 68.587C122.163 68.4885 122.242 68.3883 122.317 68.2861C122.393 68.1839 122.466 68.08 122.537 67.9742C122.608 67.8684 122.676 67.7609 122.742 67.6517C122.807 67.5426 122.87 67.4318 122.93 67.3197C122.99 67.2076 123.047 67.0938 123.102 66.9787C123.156 66.8636 123.208 66.7475 123.257 66.6298C123.305 66.5124 123.351 66.3937 123.394 66.2739C123.437 66.1539 123.477 66.0332 123.514 65.9114C123.551 65.7897 123.585 65.667 123.616 65.5437C123.646 65.42 123.675 65.296 123.699 65.1713C123.724 65.0463 123.746 64.9209 123.765 64.7949C123.783 64.6692 123.799 64.5429 123.812 64.4162C123.824 64.2895 123.833 64.1626 123.84 64.0356C123.846 63.9086 123.849 63.7812 123.849 63.6539C123.849 63.5266 123.846 63.3996 123.84 63.2722C123.833 63.1452 123.824 63.0182 123.812 62.8916C123.799 62.7649 123.783 62.6389 123.765 62.5129C123.746 62.3869 123.724 62.2615 123.699 62.1368C123.675 62.0118 123.646 61.8878 123.616 61.7644C123.585 61.6411 123.551 61.5184 123.514 61.3967C123.477 61.2746 123.437 61.1539 123.394 61.0342C123.351 60.9145 123.305 60.7957 123.257 60.678C123.208 60.5606 123.156 60.4442 123.102 60.3291C123.047 60.214 122.99 60.1005 122.93 59.9881C122.87 59.876 122.807 59.7652 122.742 59.656C122.676 59.5469 122.608 59.4397 122.537 59.3339C122.466 59.2281 122.393 59.1239 122.317 59.0217C122.242 58.9195 122.163 58.8193 122.082 58.7211C122.002 58.6228 121.918 58.5263 121.833 58.432C121.747 58.3377 121.659 58.2458 121.569 58.1558" fill="#F03C2E"/>
</g>
</svg>
