<svg width="121" height="121" viewBox="0 0 121 121" fill="none" xmlns="http://www.w3.org/2000/svg">
<mask id="mask0_21_507" style="mask-type:luminance" maskUnits="userSpaceOnUse" x="9" y="2" width="103" height="117">
<path d="M9.57312 2.66064H111.455V118.337H9.57312V2.66064Z" fill="white"/>
</mask>
<g mask="url(#mask0_21_507)">
<path d="M18.8216 106.736L9.54404 2.71411H111.484L102.199 106.721L60.4488 118.286L18.8216 106.736Z" fill="#E44D26"/>
</g>
<path d="M94.2471 100.098L102.185 11.2207H60.5142V109.449L94.2471 100.098Z" fill="#F16529"/>
<path d="M60.4706 23.9774H28.5115L31.9546 62.5578H60.5141V49.8011H43.6277L42.4605 36.7376H60.5141V23.9774H60.4706ZM60.5141 82.8918L60.4599 82.9063L46.2468 79.0709L45.3437 68.8965H32.5253L34.3138 88.9273L60.4561 96.1508L60.5141 96.1325V82.8918Z" fill="#EBEBEB"/>
<path d="M60.4707 62.5578H76.1865L74.7414 79.0995L60.5069 82.9388V96.2119L86.671 88.9632L90.1756 49.7939H60.5142L60.4707 62.5578ZM92.1336 27.4013L92.4371 23.9774H60.4634V36.7338H91.2882L91.5412 33.8663L92.1336 27.4013Z" fill="white"/>
</svg>
