<svg width="130" height="131" viewBox="0 0 130 131" fill="none" xmlns="http://www.w3.org/2000/svg">
<mask id="mask0_20_300" style="mask-type:luminance" maskUnits="userSpaceOnUse" x="3" y="4" width="124" height="124">
<path d="M3.98047 4.01147H126.05V127.02H3.98047V4.01147Z" fill="white"/>
</mask>
<g mask="url(#mask0_20_300)">
<path d="M3.98047 4.01147H126.05V127.02H3.98047V4.01147Z" fill="#FFD600"/>
</g>
<path d="M83.7942 96.0865C86.1407 99.9271 88.6906 103.607 94.092 103.607C98.6291 103.607 101.009 101.335 101.009 98.1913C101.009 94.4292 98.5475 93.0932 93.5564 90.9031L90.82 89.7275C82.9225 86.3519 77.6703 82.1216 77.6703 73.1864C77.6703 64.9514 83.9263 58.6849 93.702 58.6849C100.663 58.6849 105.665 61.1142 109.273 67.4766L100.748 72.9677C98.8732 69.5917 96.8453 68.2626 93.702 68.2626C90.4943 68.2626 88.4634 70.3023 88.4634 72.9677C88.4634 76.2614 90.4977 77.5943 95.1939 79.634L97.9304 80.8096C107.238 84.8037 112.487 88.8835 112.487 98.0545C112.487 107.936 104.743 113.352 94.3462 113.352C84.1771 113.352 78.4026 108.21 75.1882 101.844L83.7942 96.0865ZM44.5078 96.3665C46.2236 99.4624 48.8313 101.844 52.5814 101.844C56.1689 101.844 58.234 100.416 58.234 94.8631V58.6815H69.5355V96.6128C69.5355 108.117 62.9133 113.352 53.2425 113.352C44.5044 113.352 38.1974 107.386 35.6272 101.844L44.5078 96.3665Z" fill="#000001"/>
</svg>
