<svg width="148" height="139" viewBox="0 0 148 139" fill="none" xmlns="http://www.w3.org/2000/svg">
<rect width="148" height="139" rx="8" fill="white"/>
<mask id="mask0_21_642" style="mask-type:luminance" maskUnits="userSpaceOnUse" x="3" y="77" width="59" height="28">
<path d="M3.05945 77.9331H61.6674V104.753H3.05945V77.9331Z" fill="white"/>
</mask>
<g mask="url(#mask0_21_642)">
<path d="M3.14853 98.6634H7.81708V81.3481L15.0444 96.4484C15.897 98.2688 17.0648 98.9229 19.3538 98.9229C21.6427 98.9229 22.7651 98.2761 23.6188 96.4484L30.8469 81.3481V98.6699H35.5162V81.3767C35.5162 79.6899 34.7963 78.874 33.3155 78.4526C29.7696 77.4123 27.3901 78.3122 26.3132 80.5615L19.2208 95.4642L12.3515 80.555C11.319 78.3057 8.89509 77.4058 5.34887 78.4461C3.86695 78.8678 3.14853 79.6837 3.14853 81.3702V98.6634ZM39.3966 84.565H44.0636V94.1086C44.02 94.6277 44.2405 95.8447 46.7981 95.8816C48.1031 95.9011 56.8687 95.8816 56.9504 95.8816V84.5176H61.6278C61.6486 84.5176 61.6228 100.012 61.6236 100.079C61.649 103.9 56.5765 104.731 54.2394 104.795H39.4983V101.843L54.2656 101.843C57.2699 101.544 56.9157 100.141 56.9157 99.6686V98.5179H46.9931C42.3766 98.4788 39.4374 96.5849 39.4004 94.4072C39.397 94.2121 39.5003 84.6584 39.3977 84.5643L39.3966 84.565Z" fill="#00618A"/>
</g>
<path d="M65.2267 98.6642H78.6488C80.2198 98.6642 81.7468 98.3555 82.9597 97.8205C84.9801 96.9492 85.9675 95.7681 85.9675 94.2213V91.0164C85.9675 89.7505 84.8452 88.5701 82.6464 87.7828C81.4789 87.36 80.0425 87.1359 78.6511 87.1359H72.9944C71.1097 87.1359 70.2113 86.6013 69.9873 85.4209C69.9423 85.2804 69.9423 85.1606 69.9423 85.0267V83.0307C69.9423 82.9185 69.9423 82.8052 69.9873 82.6648C70.2113 81.7652 70.7054 81.5115 72.3661 81.3645C72.501 81.3645 72.6803 81.3359 72.8159 81.3359H86.1483V78.4126H73.0402C71.1544 78.4126 70.1673 78.5248 69.2689 78.7778C66.482 79.5937 65.2695 80.894 65.2695 83.1433V85.7021C65.2695 87.6709 67.6498 89.3578 71.6439 89.7512C72.0936 89.7791 72.5419 89.807 72.9901 89.807H77.8387C78.0187 89.807 78.1987 89.807 78.3328 89.8356C79.8135 89.9482 80.4433 90.2012 80.8916 90.7069C81.1683 90.9668 81.2512 91.214 81.2512 91.4869V94.0458C81.2512 94.3552 81.0272 94.7494 80.5782 95.0861C80.1739 95.4242 79.5006 95.6482 78.6026 95.7051C78.4226 95.7051 78.2885 95.7329 78.1092 95.7329H65.2255V98.657L65.2267 98.6642ZM115.091 93.5752C115.091 96.584 117.47 98.2711 122.273 98.6085C122.721 98.6411 123.17 98.6595 123.619 98.6642H135.785V95.7402H123.529C120.791 95.7402 119.759 95.0933 119.759 93.5466V78.4184H115.09V93.5737L115.091 93.5752ZM88.9456 93.7272V83.3026C88.9456 80.654 90.9247 79.0475 94.8382 78.5404C95.256 78.4843 95.6761 78.4564 96.0982 78.456H104.96C105.397 78.4564 105.832 78.4843 106.265 78.5404C110.179 79.0475 112.157 80.6532 112.157 83.3026V93.7272C112.157 95.8759 111.317 97.0259 109.379 97.7756L113.978 101.676H108.557L104.837 98.5205L101.091 98.7435H96.0982C95.2437 98.7435 94.3441 98.6306 93.354 98.3768C90.3786 97.6163 88.9464 96.151 88.9464 93.7272H88.9456ZM93.9849 93.4673C93.9849 93.6085 94.03 93.7489 94.0751 93.9183C94.3518 95.1302 95.5594 95.8064 97.3963 95.8064H101.638L97.7424 92.5019H103.163L106.553 95.384C107.18 95.0705 107.591 94.5905 107.73 93.9752C107.775 93.8347 107.775 93.6935 107.775 93.5524V83.5567C107.775 83.4445 107.775 83.2968 107.73 83.1621C107.453 82.0356 106.245 81.3873 104.446 81.3873H97.4086C95.3331 81.3873 93.9907 82.2326 93.9907 83.5567V93.4749L93.9849 93.4673Z" fill="#E48E00"/>
<path d="M139.89 73.5663C137.02 73.4936 134.828 73.7437 132.954 74.4861C132.421 74.6975 131.572 74.7026 131.485 75.3299C131.777 75.618 131.824 76.0484 132.056 76.4028C132.503 77.0833 133.259 77.9955 133.933 78.4726C134.669 78.9949 135.427 79.5538 136.218 80.007C137.623 80.8117 139.191 81.2714 140.543 82.0772C141.34 82.5518 142.132 83.1497 142.909 83.6866C143.293 83.9519 143.553 84.3642 144.051 84.53V84.4532C143.788 84.139 143.721 83.7076 143.48 83.3807L142.42 82.3838C141.382 81.0836 140.065 79.9545 138.666 79.0098C137.549 78.2569 135.051 77.2401 134.585 76.0191L134.503 75.9424C135.295 75.858 136.222 75.5894 136.953 75.4063C138.18 75.0971 139.276 75.1768 140.544 74.8698L142.258 74.4094V74.1028C141.617 73.4849 141.161 72.6679 140.463 72.1094C138.636 70.6466 136.641 69.1871 134.588 67.968C133.449 67.2922 132.042 66.8538 130.834 66.2811C130.428 66.0886 129.715 65.9887 129.447 65.6672C128.813 64.9082 128.468 63.9446 127.979 63.0668C126.955 61.2142 125.948 59.1896 125.041 57.24C124.421 55.9104 124.017 54.599 123.246 53.4059C119.54 47.6823 115.551 44.2276 109.374 40.8329C108.059 40.1111 106.477 39.8252 104.804 39.4527L102.11 39.2992C101.563 39.0846 100.992 38.454 100.478 38.1485C98.4308 36.9326 93.181 34.2912 91.6652 37.7583C90.7082 39.9511 93.0951 42.0908 93.9499 43.2024C94.5489 43.9825 95.317 44.8556 95.7448 45.7327C96.0262 46.3086 96.0755 46.8867 96.3164 47.4966C96.9092 48.9919 97.4252 50.6321 98.1926 52.0199C98.5803 52.7221 99.0078 53.462 99.4984 54.0901C99.7994 54.4756 100.315 54.6453 100.396 55.2408C99.8923 55.9039 99.863 56.9309 99.5793 57.771C98.3044 61.5494 98.785 66.2453 100.64 69.042C101.21 69.9002 102.55 71.7412 104.394 71.0354C106.006 70.4178 105.64 68.5062 106.108 66.8187C106.212 66.435 106.148 66.1555 106.353 65.8989V65.9756L107.822 68.7354C108.908 70.3802 110.839 72.0996 112.473 73.2601C113.321 73.8614 113.995 74.9017 115.084 75.2535V75.1768H115.003C114.79 74.8648 114.458 74.7366 114.186 74.4876C113.548 73.899 112.837 73.1678 112.309 72.4942C110.822 70.597 109.508 68.5222 108.311 66.3604C107.739 65.3288 107.242 64.1904 106.761 63.1403C106.576 62.7352 106.578 62.1235 106.19 61.9135C105.662 62.6834 104.885 63.305 104.476 64.2135C103.823 65.6661 103.739 67.4369 103.497 69.2744C103.354 69.3221 103.418 69.2892 103.334 69.3511C102.198 69.0934 101.798 67.994 101.376 67.0507C100.307 64.6649 100.11 60.8254 101.049 58.0805C101.291 57.3707 102.391 55.1329 101.947 54.4766C101.734 53.8222 101.033 53.4367 100.641 52.9426C100.157 52.325 99.6707 51.5095 99.3354 50.7957C98.4605 48.9366 98.0523 46.8497 97.1319 44.9689C96.6922 44.0705 95.9487 43.1615 95.337 42.3684C94.6606 41.4841 93.9029 40.8315 93.3791 39.768C93.1922 39.3875 92.939 38.7798 93.2157 38.3878C93.2288 38.3313 93.2504 38.2777 93.2797 38.2274C93.3094 38.1767 93.3456 38.1311 93.3892 38.0902C93.4323 38.0497 93.4813 38.0153 93.5348 37.9874C93.5888 37.9599 93.6458 37.9396 93.7056 37.9273C94.1789 37.5849 95.4978 38.041 95.9903 38.2343C97.298 38.7454 98.3915 39.2315 99.4999 39.9215C100.033 40.2465 100.57 40.8937 101.213 41.0718H101.947C103.095 41.3205 104.382 41.15 105.455 41.4555C107.352 41.9971 109.051 42.8405 110.596 43.7555C115.3 46.546 119.145 50.5184 121.775 55.2629C122.199 56.0256 122.382 56.7542 122.754 57.5629C123.507 59.1882 124.454 60.8739 125.203 62.4695C125.95 64.0622 126.676 65.668 127.732 66.9928C128.287 67.6885 130.431 68.0632 131.404 68.449C132.087 68.7202 133.205 69.0032 133.853 69.3692C135.088 70.0693 136.285 70.9033 137.444 71.6707C138.023 72.054 139.803 72.8949 139.892 73.587L139.89 73.5663Z" fill="#00618A"/>
<path fill-rule="evenodd" clip-rule="evenodd" d="M103.418 44.3561C102.819 44.3459 102.396 44.4172 101.948 44.5095V44.5863H102.03C102.315 45.1376 102.819 45.492 103.172 45.9665L103.988 47.5762L104.07 47.4995C104.575 47.1647 104.807 46.6297 104.804 45.8123C104.601 45.6121 104.571 45.3613 104.395 45.122C104.162 44.8035 103.703 44.6228 103.416 44.355L103.418 44.3561Z" fill="#00618A"/>
<path fill-rule="evenodd" clip-rule="evenodd" d="M137.98 95.6575C137.98 97.5883 139.604 98.89 141.42 98.89C143.237 98.89 144.86 97.5883 144.86 95.6575C144.86 93.7267 143.237 92.425 141.42 92.425C139.604 92.425 137.98 93.7267 137.98 95.6575ZM144.09 95.6575C144.09 97.1228 142.898 98.2178 141.419 98.2178C139.924 98.2178 138.748 97.1228 138.748 95.6575C138.748 94.1922 139.923 93.0972 141.419 93.0972C142.896 93.0972 144.09 94.1922 144.09 95.6575ZM142.346 97.5025H143.116L141.988 95.8823C142.594 95.8219 143.052 95.5457 143.052 94.8735C143.052 94.1231 142.547 93.8136 141.575 93.8136H140.043V97.5033H140.703V95.9084H141.318L142.346 97.5033L142.346 97.5025ZM140.703 95.3897V94.3298H141.465C141.859 94.3298 142.336 94.3989 142.336 94.8304C142.336 95.3473 141.906 95.3911 141.409 95.3911H140.703V95.3897Z" fill="#E48E00"/>
</svg>
