<svg width="187" height="187" viewBox="0 0 187 187" fill="none" xmlns="http://www.w3.org/2000/svg">
<mask id="mask0_20_271" style="mask-type:luminance" maskUnits="userSpaceOnUse" x="154" y="85" width="30" height="34">
<path d="M154.47 85.8162H183.33V118.402H154.47V85.8162Z" fill="white"/>
</mask>
<g mask="url(#mask0_20_271)">
<path d="M168.917 85.819C168.478 85.819 168.051 85.9093 167.674 86.1231L155.732 93.0228C154.959 93.4683 154.49 94.3098 154.49 95.2047V108.98C154.49 109.874 154.959 110.715 155.732 111.161L158.851 112.959C160.366 113.707 160.925 113.695 161.615 113.695C163.858 113.695 165.138 112.333 165.138 109.966V96.3745C165.138 96.1826 164.972 96.0452 164.784 96.0452H163.288C163.096 96.0452 162.933 96.186 162.933 96.3745V109.972C162.933 111.021 161.841 112.076 160.068 111.189L156.826 109.287C156.711 109.225 156.623 109.111 156.623 108.983V95.2076C156.623 95.0769 156.71 94.9438 156.826 94.8777L168.743 88.0028C168.854 87.9386 168.988 87.9386 169.098 88.0028L181.015 94.8777C181.128 94.9457 181.218 95.073 181.218 95.2076V108.983C181.218 109.114 181.152 109.249 181.04 109.313L169.098 116.188C168.992 116.249 168.852 116.249 168.743 116.188L165.675 114.361C165.583 114.308 165.459 114.312 165.371 114.361C164.524 114.841 164.365 114.897 163.571 115.173C163.375 115.241 163.077 115.347 163.673 115.681L167.679 118.043C168.06 118.264 168.485 118.372 168.921 118.372C169.364 118.372 169.782 118.267 170.164 118.043L182.106 111.168C182.879 110.718 183.349 109.881 183.349 108.986V95.211C183.349 94.3161 182.879 93.4766 182.106 93.0291L170.164 86.1294C169.79 85.9156 169.36 85.8253 168.921 85.8253L168.917 85.819ZM172.111 95.6618C168.711 95.6618 166.686 97.1101 166.686 99.5178C166.686 102.127 168.696 102.848 171.959 103.17C175.864 103.553 176.169 104.127 176.169 104.895C176.169 106.23 175.106 106.798 172.593 106.798C169.437 106.798 168.744 106.01 168.511 104.436C168.484 104.267 168.354 104.132 168.182 104.132H166.631C166.585 104.133 166.54 104.142 166.497 104.161C166.454 104.179 166.416 104.205 166.383 104.238C166.35 104.271 166.324 104.309 166.306 104.352C166.287 104.395 166.278 104.44 166.277 104.487C166.277 106.497 167.37 108.875 172.59 108.875C176.369 108.875 178.549 107.395 178.549 104.791C178.549 102.217 176.788 101.521 173.122 101.036C169.422 100.542 169.066 100.306 169.066 99.4377C169.066 98.7211 169.365 97.763 172.109 97.763C174.559 97.763 175.464 98.2921 175.836 99.9449C175.868 100.1 176.005 100.227 176.165 100.227H177.716C177.811 100.227 177.903 100.168 177.97 100.1C178.034 100.027 178.08 99.9449 178.071 99.8463C177.832 96.9993 175.934 95.6604 172.112 95.6604L172.111 95.6618Z" fill="#83CD29"/>
</g>
<mask id="mask1_20_271" style="mask-type:luminance" maskUnits="userSpaceOnUse" x="3" y="67" width="143" height="52">
<path d="M3.20642 67.6589H145.14V118.651H3.20642V67.6589Z" fill="white"/>
</mask>
<g mask="url(#mask1_20_271)">
<path d="M98.7062 67.761C98.5707 67.7615 98.4439 67.795 98.3258 67.8626C98.2685 67.8966 98.216 67.9369 98.1689 67.984C98.1218 68.0316 98.0819 68.0841 98.0484 68.1419C98.0149 68.1997 97.9896 68.2609 97.9721 68.3256C97.9551 68.3897 97.9459 68.4558 97.9459 68.5223V87.9287C97.9459 88.1191 97.857 88.2897 97.6918 88.3854C97.6097 88.4335 97.5208 88.4573 97.4256 88.4573C97.3304 88.4573 97.2419 88.4335 97.1593 88.3854L93.9898 86.5592C93.8747 86.4921 93.7522 86.4416 93.623 86.4066C93.4943 86.3721 93.3631 86.3546 93.2295 86.3546C93.0959 86.3546 92.9647 86.3721 92.8355 86.4066C92.7067 86.4416 92.5843 86.4921 92.4687 86.5592L79.8177 93.865C79.3445 94.1376 79.0564 94.6632 79.0564 95.2093V109.821C79.0559 109.955 79.0734 110.086 79.1079 110.216C79.1424 110.344 79.193 110.467 79.2595 110.583C79.3266 110.698 79.4072 110.804 79.5015 110.898C79.5962 110.993 79.7011 111.074 79.8172 111.14L92.4697 118.446C92.5848 118.513 92.7072 118.564 92.8364 118.599C92.9652 118.633 93.0964 118.651 93.23 118.651C93.3636 118.651 93.4947 118.633 93.624 118.599C93.7527 118.564 93.8751 118.513 93.9908 118.446L106.643 111.14C106.759 111.074 106.864 110.993 106.958 110.898C107.053 110.804 107.134 110.698 107.2 110.583C107.267 110.467 107.318 110.344 107.352 110.216C107.387 110.086 107.404 109.955 107.404 109.821V73.3927C107.404 72.8384 107.101 72.3186 106.618 72.0485L99.0871 67.8354C98.9686 67.7698 98.8379 67.7581 98.7067 67.7591L98.7062 67.761ZM17.3155 86.0005C17.0741 86.0107 16.8477 86.0524 16.631 86.1783L3.97908 93.4841C3.86297 93.5507 3.75803 93.6313 3.66329 93.7256C3.56856 93.8203 3.48791 93.9253 3.42135 94.0409C3.35431 94.157 3.30378 94.2794 3.26977 94.4087C3.23528 94.5379 3.21827 94.6696 3.21876 94.8032L3.24451 114.413C3.24451 114.686 3.3854 114.939 3.62491 115.072C3.86005 115.213 4.15155 115.213 4.38523 115.072L11.8903 110.76C12.3664 110.477 12.6764 109.985 12.6764 109.441V100.282C12.6764 99.7358 12.9635 99.2349 13.4377 98.9633L16.6325 97.1118C16.8676 96.9748 17.1207 96.9073 17.3928 96.9087C17.6648 96.9068 17.9184 96.9748 18.1536 97.1118L21.3469 98.9623C21.8206 99.2339 22.1077 99.7353 22.1077 100.281V109.439C22.1077 109.984 22.425 110.479 22.8933 110.758L30.3984 115.07C30.6345 115.211 30.9255 115.211 31.1592 115.07C31.3914 114.936 31.5396 114.683 31.5396 114.411L31.5649 94.8017C31.5658 94.6676 31.5488 94.5364 31.5148 94.4067C31.4803 94.2775 31.4303 94.1551 31.3632 94.039C31.2962 93.9233 31.2155 93.8179 31.1208 93.7237C31.0261 93.6294 30.9206 93.5488 30.8045 93.4827L18.1526 86.1792C17.9388 86.0539 17.711 86.0116 17.4681 86.0014H17.3165L17.3155 86.0005ZM131.007 86.1783C130.735 86.1778 130.482 86.2453 130.247 86.3813L117.594 93.6877C117.122 93.9607 116.833 94.4602 116.833 95.0062V109.618C116.833 110.167 117.142 110.665 117.619 110.937L130.17 118.094C130.633 118.359 131.199 118.378 131.666 118.119L139.272 113.882C139.513 113.748 139.677 113.498 139.678 113.223C139.678 112.948 139.535 112.7 139.297 112.564L126.568 105.257C126.33 105.121 126.163 104.846 126.163 104.572V100.003C126.163 99.7299 126.332 99.4797 126.568 99.3437L130.524 97.0603C130.759 96.9243 131.048 96.9243 131.285 97.0603L135.249 99.3437C135.307 99.3767 135.359 99.4171 135.407 99.4642C135.454 99.5113 135.495 99.5643 135.528 99.6221C135.562 99.6799 135.587 99.7411 135.604 99.8057C135.621 99.8703 135.63 99.9359 135.63 100.003V103.605C135.629 103.672 135.638 103.738 135.655 103.802C135.672 103.867 135.698 103.928 135.731 103.986C135.764 104.044 135.805 104.097 135.852 104.144C135.899 104.191 135.952 104.231 136.01 104.265C136.247 104.401 136.534 104.402 136.771 104.265L144.351 99.8504C144.821 99.5764 145.112 99.0755 145.112 98.5314V95.0058C145.112 94.8722 145.095 94.741 145.06 94.6117C145.026 94.4825 144.975 94.3601 144.908 94.2445C144.841 94.1283 144.761 94.0234 144.666 93.9287C144.572 93.8344 144.467 93.7538 144.351 93.6867L131.775 86.3809C131.54 86.2443 131.286 86.1768 131.014 86.1778L131.007 86.1783ZM93.177 97.087C93.2489 97.0866 93.3164 97.1036 93.3801 97.1376L97.7156 99.6488C97.8332 99.7168 97.9187 99.8427 97.9187 99.9787V105.001C97.9187 105.138 97.8342 105.264 97.7156 105.331L93.3801 107.842C93.262 107.909 93.1177 107.909 92.9992 107.842L88.6637 105.331C88.5456 105.263 88.4606 105.137 88.4606 105.001V99.9801C88.4606 99.8436 88.5461 99.7193 88.6637 99.6503L92.9992 97.139C93.0585 97.105 93.1109 97.089 93.177 97.089V97.087Z" fill="#404137"/>
</g>
<path d="M55.3243 86.1032C55.0522 86.1027 54.7986 86.1702 54.563 86.3062L41.9106 93.5868C41.4379 93.8599 41.1503 94.3855 41.1503 94.9311V109.543C41.1498 109.676 41.1668 109.808 41.2013 109.937C41.2358 110.067 41.2863 110.189 41.3529 110.305C41.4199 110.421 41.5006 110.526 41.5948 110.62C41.6895 110.715 41.795 110.795 41.9106 110.861L54.563 118.168C54.6786 118.235 54.8006 118.286 54.9298 118.32C55.0585 118.355 55.1902 118.373 55.3238 118.373C55.4569 118.373 55.5886 118.355 55.7173 118.32C55.8466 118.286 55.9685 118.235 56.0841 118.168L68.7365 110.861C68.8522 110.795 68.9576 110.714 69.0518 110.62C69.1466 110.525 69.2272 110.42 69.2938 110.304C69.3608 110.189 69.4113 110.066 69.4458 109.937C69.4803 109.808 69.4973 109.676 69.4973 109.543V94.9316C69.4973 94.3855 69.2097 93.8599 68.736 93.5873L56.0836 86.3067C55.8485 86.1702 55.5949 86.1027 55.3228 86.1036L55.3243 86.1032ZM130.985 99.1423C130.934 99.1423 130.878 99.1423 130.833 99.1671L128.398 100.588C128.352 100.613 128.315 100.649 128.288 100.694C128.261 100.74 128.247 100.789 128.246 100.841V103.632C128.246 103.737 128.307 103.833 128.398 103.886L130.833 105.281C130.875 105.307 130.921 105.321 130.972 105.321C131.022 105.321 131.068 105.307 131.111 105.281L133.545 103.886C133.635 103.834 133.697 103.737 133.697 103.632V100.841C133.697 100.736 133.635 100.641 133.545 100.588L131.111 99.1666C131.066 99.1398 131.035 99.1418 130.984 99.1418L130.985 99.1423Z" fill="#83CD29"/>
</svg>
