<svg width="153" height="153" viewBox="0 0 153 153" fill="none" xmlns="http://www.w3.org/2000/svg">
<mask id="mask0_20_312" style="mask-type:luminance" maskUnits="userSpaceOnUse" x="2" y="38" width="149" height="77">
<path d="M2.42529 38.0444H150.606V114.952H2.42529V38.0444Z" fill="white"/>
</mask>
<g mask="url(#mask0_20_312)">
<mask id="mask1_20_312" style="mask-type:luminance" maskUnits="userSpaceOnUse" x="2" y="38" width="149" height="77">
<path d="M2.42517 76.5106C2.42517 97.7357 35.5971 114.943 76.5134 114.943C117.43 114.943 150.602 97.7357 150.602 76.5106C150.602 55.2854 117.43 38.0785 76.5134 38.0785C35.5971 38.0785 2.42517 55.2862 2.42517 76.5106Z" fill="white"/>
</mask>
<g mask="url(#mask1_20_312)">
<mask id="mask2_20_312" style="mask-type:luminance" maskUnits="userSpaceOnUse" x="2" y="38" width="149" height="77">
<path d="M2.42505 76.5092C2.42505 97.7344 35.597 114.942 76.5133 114.942C117.43 114.942 150.602 97.7344 150.602 76.5092C150.602 55.2841 117.43 38.0771 76.5133 38.0771C35.597 38.0771 2.42505 55.2849 2.42505 76.5092Z" fill="white"/>
</mask>
<g mask="url(#mask2_20_312)">
<path d="M2.42505 38.0771V114.942H150.602V38.0771H2.42505Z" fill="url(#paint0_radial_20_312)"/>
</g>
</g>
</g>
<path d="M76.5135 112.09C115.833 112.09 147.708 96.1608 147.708 76.5111C147.708 56.8617 115.833 40.933 76.5135 40.933C37.1945 40.933 5.31946 56.8617 5.31946 76.5111C5.31946 96.1608 37.1945 112.09 76.5135 112.09Z" fill="#777BB3"/>
<path d="M42.677 80.9199C45.9104 80.9199 48.3237 80.3322 49.8505 79.1735C51.3614 78.0264 52.4049 76.039 52.9519 73.2667C53.4619 70.6753 53.2675 68.8659 52.3746 67.8898C51.4618 66.8925 49.4879 66.3865 46.508 66.3865H41.3415L38.4771 80.9203H42.677V80.9199ZM25.7789 98.8237C25.539 98.8237 25.3115 98.7181 25.1589 98.5352C25.0824 98.4436 25.0294 98.3408 25 98.226C24.9705 98.1113 24.9673 97.9957 24.99 97.8798L32.581 59.3656C32.5898 59.3206 32.6025 59.2772 32.6193 59.2345C32.6356 59.1919 32.6555 59.1508 32.6794 59.1114C32.703 59.0724 32.73 59.0353 32.7599 59.0006C32.7902 58.966 32.8233 58.9341 32.8587 58.9054C32.8946 58.8763 32.9325 58.8504 32.9731 58.8277C33.0133 58.8054 33.0552 58.7863 33.0986 58.7707C33.142 58.7556 33.1867 58.7436 33.2325 58.7361C33.2779 58.7281 33.3241 58.7241 33.3703 58.7241H49.731C54.8728 58.7241 58.6998 60.0983 61.1056 62.8165C63.5237 65.5462 64.2708 69.3624 63.3249 74.158C62.94 76.1119 62.2782 77.9264 61.3582 79.5516C60.4362 81.1781 59.2186 82.683 57.738 84.0253C55.9649 85.6613 53.9584 86.8478 51.7793 87.5459C49.6346 88.2348 46.881 88.5846 43.5934 88.5846H36.9686L35.0768 98.1826C35.0677 98.2272 35.0553 98.271 35.0386 98.3137C35.0223 98.3563 35.0023 98.3973 34.9784 98.4364C34.9549 98.4758 34.9278 98.5129 34.8979 98.5476C34.8677 98.5822 34.8346 98.6141 34.7991 98.6428C34.7633 98.6719 34.7254 98.6978 34.6852 98.7205C34.6449 98.7428 34.6031 98.7619 34.5593 98.7774C34.5158 98.793 34.4712 98.8045 34.4258 98.8125C34.38 98.8201 34.3342 98.8241 34.2879 98.8241H25.7769L25.7789 98.8237Z" fill="black"/>
<path d="M42.0044 67.1802H46.5083C50.1046 67.1802 51.3541 67.9587 51.7785 68.4221C52.4829 69.1923 52.6156 70.8159 52.163 73.1173C51.6545 75.6936 50.7118 77.5204 49.3607 78.546C47.9774 79.5963 45.7286 80.1286 42.6777 80.1286H39.454L42.0056 67.1802H42.0044ZM49.7301 57.9316H33.3702C33.2778 57.9316 33.1858 57.9396 33.0949 57.9551C33.0037 57.9707 32.9144 57.9942 32.8272 58.0249C32.7399 58.056 32.6562 58.0938 32.5758 58.1388C32.4953 58.1843 32.4192 58.2356 32.3479 58.2938C32.2765 58.352 32.2104 58.4157 32.1502 58.4847C32.0901 58.554 32.0363 58.6281 31.9889 58.7066C31.9415 58.7851 31.9012 58.8668 31.8685 58.952C31.8355 59.0373 31.81 59.125 31.7924 59.2146L24.2014 97.7312C24.1902 97.7885 24.1823 97.8463 24.1775 97.9041C24.1727 97.9623 24.1711 98.0204 24.1727 98.0786C24.1743 98.1372 24.1795 98.1949 24.1875 98.2527C24.1958 98.3105 24.207 98.3675 24.2217 98.424C24.2361 98.4806 24.254 98.536 24.2747 98.5906C24.2954 98.6452 24.3189 98.6986 24.3456 98.7504C24.3723 98.8026 24.4022 98.8528 24.4345 98.9014C24.4668 98.9504 24.5018 98.997 24.5393 99.042C24.5767 99.087 24.617 99.1301 24.6592 99.1703C24.7014 99.211 24.7461 99.2492 24.7927 99.2851C24.8393 99.3209 24.8879 99.354 24.9381 99.3847C24.9887 99.415 25.0405 99.4429 25.0939 99.4676C25.1473 99.4923 25.2019 99.5142 25.2581 99.5333C25.3138 99.552 25.3708 99.568 25.4282 99.5807C25.486 99.5935 25.5441 99.603 25.6031 99.6094C25.6617 99.6158 25.7206 99.619 25.7796 99.619H34.2879C34.3803 99.619 34.4723 99.6114 34.5636 99.5955C34.6548 99.5799 34.7441 99.5568 34.8309 99.5257C34.9182 99.495 35.0019 99.4572 35.0823 99.4118C35.1628 99.3667 35.2389 99.3153 35.3102 99.2572C35.382 99.199 35.4477 99.1353 35.5079 99.0659C35.5684 98.9966 35.6222 98.9229 35.6696 98.8444C35.717 98.7659 35.7569 98.6838 35.79 98.5986C35.823 98.5133 35.8485 98.426 35.8661 98.3364L37.6315 89.3795H43.5938C46.9653 89.3795 49.8038 89.0169 52.0295 88.3021C54.3177 87.569 56.4242 86.3255 58.2877 84.607C59.8289 83.2085 61.1011 81.6391 62.0605 79.9409C63.02 78.2432 63.7141 76.349 64.1153 74.3122C65.111 69.264 64.3021 65.2215 61.7119 62.2977C59.1468 59.4023 55.1158 57.934 49.7317 57.934M37.5036 81.7164H42.6789C46.1091 81.7164 48.6643 81.0797 50.3429 79.8047C52.0215 78.5301 53.1543 76.4024 53.7428 73.4213C54.3057 70.5589 54.0496 68.5392 52.9738 67.3623C51.898 66.1853 49.742 65.5968 46.5103 65.5968H40.6808L37.504 81.716M49.7321 59.5194C54.654 59.5194 58.2443 60.7928 60.5015 63.3404C62.7582 65.8876 63.4375 69.4437 62.5371 74.0094C62.1665 75.89 61.5398 77.6093 60.6572 79.1676C59.7747 80.7255 58.62 82.1515 57.1944 83.444C55.4955 85.0118 53.6085 86.1287 51.5314 86.7949C49.4548 87.4618 46.8099 87.7941 43.5942 87.7941H36.3067L34.2886 98.0336H25.7808L33.3722 59.5222H49.7333" fill="white"/>
<path d="M82.8324 88.5843C82.5921 88.5843 82.3646 88.4787 82.2124 88.2958C82.0598 88.1129 81.9972 87.8731 82.0435 87.6404L85.4011 70.5992C85.7206 68.9788 85.6418 67.8153 85.1796 67.3237C84.8967 67.0232 84.0464 66.5196 81.5331 66.5196H75.4497L71.2279 87.9424C71.2191 87.9874 71.2064 88.0313 71.19 88.0739C71.1733 88.1165 71.1534 88.1576 71.1299 88.1966C71.106 88.2361 71.0793 88.2727 71.049 88.3074C71.0187 88.342 70.986 88.3739 70.9502 88.403C70.9143 88.4321 70.8765 88.458 70.8362 88.4807C70.796 88.503 70.7541 88.5221 70.7103 88.5377C70.6669 88.5528 70.6223 88.5648 70.5768 88.5723C70.531 88.5803 70.4852 88.5843 70.4386 88.5843H61.9977C61.9383 88.5843 61.8797 88.5779 61.822 88.5652C61.7642 88.5524 61.7084 88.5333 61.655 88.5086C61.6012 88.4835 61.551 88.4532 61.504 88.4173C61.4574 88.3815 61.4152 88.3408 61.3773 88.2958C61.3399 88.2508 61.3076 88.2022 61.2805 88.15C61.2538 88.0978 61.2331 88.0432 61.2187 87.9866C61.204 87.9301 61.196 87.8723 61.194 87.8141C61.1924 87.7555 61.1972 87.6978 61.2084 87.6404L68.7994 49.1262C68.8086 49.0812 68.8209 49.0378 68.8376 48.9951C68.854 48.9521 68.8743 48.9115 68.8978 48.872C68.9217 48.833 68.9484 48.7959 68.9787 48.7613C69.0086 48.7266 69.0416 48.6947 69.0775 48.6656C69.113 48.6369 69.1512 48.611 69.1915 48.5883C69.2317 48.566 69.2735 48.5469 69.317 48.5314C69.3608 48.5158 69.4054 48.5043 69.4508 48.4967C69.4967 48.4887 69.5425 48.4847 69.5887 48.4847H78.03C78.089 48.4847 78.1475 48.4911 78.2057 48.5039C78.2635 48.5166 78.3193 48.5357 78.3727 48.5604C78.4264 48.5855 78.4766 48.6158 78.5233 48.6517C78.5703 48.6875 78.6125 48.7282 78.65 48.7732C78.6878 48.8182 78.7201 48.8668 78.7468 48.919C78.7735 48.9712 78.7942 49.0258 78.8089 49.0824C78.8237 49.139 78.8317 49.1964 78.8333 49.2549C78.8352 49.3135 78.8305 49.3713 78.8189 49.4286L76.9873 58.7246H83.5316C88.5169 58.7246 91.8976 59.5912 93.8671 61.3742C95.8768 63.1935 96.5004 66.1017 95.7286 70.0207L92.1968 87.9432C92.1881 87.9878 92.1753 88.0317 92.159 88.0743C92.1423 88.1169 92.1223 88.158 92.0984 88.1974C92.0749 88.2365 92.0478 88.2735 92.0179 88.3082C91.9877 88.3428 91.9546 88.3747 91.9191 88.4038C91.8833 88.4329 91.8454 88.4584 91.8052 88.4811C91.7649 88.5038 91.7231 88.5225 91.6793 88.5381C91.6358 88.5536 91.5912 88.5652 91.5454 88.5731C91.5 88.5807 91.4538 88.5847 91.4075 88.5847H82.8328L82.8324 88.5843Z" fill="black"/>
<path d="M78.0304 47.691H69.5895C69.4967 47.691 69.4046 47.6985 69.3134 47.7145C69.2221 47.73 69.1333 47.7531 69.046 47.7842C68.9588 47.8149 68.8751 47.8527 68.7946 47.8981C68.7141 47.9432 68.638 47.9946 68.5667 48.0527C68.495 48.1109 68.4292 48.1747 68.3691 48.244C68.3085 48.3133 68.2547 48.387 68.2073 48.4655C68.1603 48.544 68.1201 48.6261 68.087 48.7113C68.0539 48.7966 68.0288 48.8843 68.0109 48.9739L60.4198 87.4877C60.4087 87.5451 60.4007 87.6028 60.3959 87.6606C60.3908 87.7188 60.3896 87.777 60.3912 87.8351C60.3928 87.8937 60.3975 87.9515 60.4059 88.0092C60.4139 88.067 60.4254 88.124 60.4398 88.1806C60.4545 88.2371 60.472 88.2925 60.4928 88.3471C60.5135 88.4017 60.5374 88.4551 60.5641 88.5069C60.5908 88.5591 60.6203 88.6093 60.6529 88.6583C60.6852 88.7069 60.7203 88.7539 60.7577 88.7985C60.7952 88.8436 60.8354 88.8866 60.8777 88.9272C60.9199 88.9679 60.9645 89.0061 61.0111 89.0416C61.0577 89.0774 61.1064 89.1105 61.1566 89.1412C61.2072 89.1715 61.259 89.1994 61.3123 89.2241C61.3657 89.2492 61.4207 89.2711 61.4765 89.2898C61.5323 89.3089 61.5893 89.3245 61.647 89.3372C61.7044 89.35 61.7626 89.3595 61.8216 89.3659C61.8801 89.3723 61.9391 89.3755 61.9981 89.3755H70.4394C70.5318 89.3755 70.6238 89.3679 70.7151 89.352C70.8063 89.3364 70.8956 89.3133 70.9824 89.2822C71.0697 89.2516 71.1538 89.2137 71.2342 89.1683C71.3147 89.1233 71.3904 89.0715 71.4621 89.0137C71.5335 88.9555 71.5992 88.8918 71.6598 88.8224C71.7199 88.7531 71.7737 88.6794 71.8211 88.6009C71.8686 88.5224 71.9088 88.4403 71.9415 88.3551C71.9745 88.2698 72 88.1822 72.0176 88.0929L76.1131 67.3108H81.5338C84.0432 67.3108 84.5695 67.8395 84.5907 67.8622C84.7429 68.0232 84.9433 68.7711 84.6126 70.4465L81.2549 87.4877C81.2438 87.5451 81.2358 87.6028 81.231 87.6606C81.2263 87.7188 81.2247 87.777 81.2263 87.8351C81.2278 87.8937 81.233 87.9515 81.241 88.0092C81.2494 88.067 81.2605 88.124 81.2753 88.1806C81.2896 88.2371 81.3071 88.2925 81.3283 88.3471C81.349 88.4017 81.3725 88.4551 81.3992 88.5069C81.4259 88.5591 81.4558 88.6093 81.488 88.6583C81.5203 88.7069 81.5554 88.7539 81.5928 88.7989C81.6303 88.8436 81.6705 88.8866 81.7127 88.9272C81.7554 88.9679 81.7996 89.0061 81.8462 89.0416C81.8928 89.0774 81.9414 89.1105 81.992 89.1412C82.0423 89.1715 82.094 89.1994 82.1474 89.2241C82.2012 89.2492 82.2558 89.2711 82.3116 89.2898C82.3674 89.3089 82.4244 89.3245 82.4821 89.3372C82.5399 89.35 82.5981 89.3595 82.6566 89.3659C82.7152 89.3723 82.7742 89.3755 82.8335 89.3755H91.4083C91.5012 89.3755 91.5928 89.3679 91.684 89.352C91.7753 89.3364 91.8645 89.3133 91.9518 89.2822C92.039 89.2516 92.1227 89.2137 92.2032 89.1683C92.2837 89.1233 92.3598 89.0715 92.4311 89.0137C92.5028 88.9555 92.5686 88.8918 92.6287 88.8224C92.6893 88.7531 92.7431 88.6794 92.7901 88.6009C92.8375 88.5224 92.8778 88.4403 92.9108 88.3551C92.9439 88.2698 92.969 88.1822 92.9869 88.0929L96.5187 70.17C97.3474 65.9633 96.6386 62.8073 94.4125 60.7892C92.2881 58.8655 88.7292 57.93 83.5328 57.93H77.9634L79.6094 49.5787C79.6209 49.5214 79.6289 49.4636 79.6337 49.4054C79.6385 49.3477 79.6401 49.2895 79.6385 49.2309C79.6369 49.1727 79.6317 49.115 79.6237 49.0572C79.6154 48.9994 79.6042 48.9424 79.5895 48.8859C79.5751 48.8293 79.5572 48.7739 79.5365 48.7193C79.5158 48.6647 79.4923 48.6113 79.4656 48.5591C79.4385 48.5073 79.409 48.4567 79.3767 48.4081C79.3444 48.3595 79.3094 48.3125 79.2719 48.2675C79.2341 48.2225 79.1942 48.1798 79.152 48.1392C79.1094 48.0986 79.0651 48.0603 79.0181 48.0244C78.9715 47.9886 78.9233 47.9555 78.8727 47.9252C78.8225 47.8946 78.7703 47.8667 78.7169 47.842C78.6635 47.8173 78.6089 47.7953 78.5531 47.7762C78.497 47.7575 78.4404 47.7416 78.3826 47.7288C78.3248 47.7161 78.2667 47.7065 78.2081 47.7001C78.1491 47.6937 78.0902 47.6906 78.0312 47.6906M78.0312 49.2759L76.0135 59.5158H83.5332C88.2646 59.5158 91.5282 60.3302 93.3248 61.9566C95.1214 63.5834 95.6589 66.2219 94.9413 69.868L91.4091 87.7901H82.8343L86.192 70.7493C86.5741 68.8109 86.4334 67.4885 85.77 66.7837C85.1066 66.0784 83.6946 65.7254 81.535 65.7254H74.7875L70.4394 87.7901H61.9985L69.5895 49.2759H78.0304" fill="white"/>
<path d="M109.085 80.9207C112.318 80.9207 114.732 80.333 116.259 79.1743C117.77 78.0272 118.813 76.0402 119.36 73.2675C119.87 70.6761 119.676 68.8667 118.783 67.8906C117.87 66.8933 115.896 66.3873 112.916 66.3873H107.75L104.885 80.9211H109.085L109.085 80.9207ZM92.1864 98.8237C91.9466 98.8237 91.7191 98.7181 91.5665 98.5352C91.49 98.4436 91.437 98.3408 91.4075 98.226C91.378 98.1113 91.3744 97.9957 91.3975 97.8798L98.9885 59.3656C98.9973 59.3206 99.0101 59.2772 99.0264 59.2345C99.0431 59.1915 99.0631 59.1508 99.087 59.1114C99.1105 59.0724 99.1376 59.0353 99.1674 59.0006C99.1977 58.966 99.2308 58.9341 99.2663 58.905C99.3021 58.8759 99.34 58.8504 99.3802 58.8277C99.4205 58.805 99.4627 58.7863 99.5061 58.7707C99.5499 58.7552 99.5946 58.7436 99.64 58.7361C99.6858 58.7281 99.7316 58.7241 99.7779 58.7241H116.138C121.281 58.7241 125.107 60.0983 127.513 62.8165C129.932 65.5462 130.678 69.362 129.733 74.158C129.347 76.1119 128.686 77.9264 127.765 79.5516C126.843 81.1781 125.626 82.683 124.145 84.0253C122.372 85.6613 120.366 86.8478 118.186 87.5459C116.042 88.2348 113.288 88.5846 110.001 88.5846H103.371L101.48 98.1826C101.471 98.2272 101.458 98.271 101.442 98.3137C101.425 98.3563 101.405 98.3973 101.382 98.4368C101.358 98.4758 101.331 98.5129 101.301 98.5476C101.27 98.5822 101.238 98.6141 101.202 98.6432C101.166 98.6723 101.128 98.6982 101.088 98.7205C101.048 98.7432 101.006 98.7623 100.962 98.7774C100.919 98.793 100.874 98.8045 100.828 98.8125C100.783 98.8201 100.736 98.8241 100.69 98.8241H92.1824L92.1864 98.8237Z" fill="black"/>
<path d="M108.413 67.1802H112.917C116.513 67.1802 117.763 67.9587 118.187 68.4221C118.892 69.1923 119.024 70.8159 118.571 73.1169C118.063 75.6932 117.12 77.5204 115.769 78.546C114.386 79.5963 112.137 80.1286 109.086 80.1286H105.861L108.413 67.1802ZM116.138 57.9316H99.7775C99.6851 57.9316 99.5931 57.9396 99.5018 57.9551C99.411 57.9707 99.3217 57.9942 99.2345 58.0249C99.1472 58.056 99.0635 58.0938 98.9831 58.1388C98.9026 58.1843 98.8265 58.2356 98.7551 58.2938C98.6838 58.352 98.6177 58.4157 98.5575 58.4847C98.4974 58.554 98.4436 58.6281 98.3962 58.7066C98.3487 58.7851 98.3085 58.8668 98.2754 58.952C98.2428 59.0373 98.2173 59.125 98.1997 59.2146L90.6079 97.7312C90.5967 97.7885 90.5888 97.8463 90.584 97.9041C90.5792 97.9623 90.5776 98.0204 90.5792 98.0786C90.5808 98.1372 90.586 98.1949 90.594 98.2527C90.6023 98.3105 90.6135 98.3675 90.6282 98.424C90.6426 98.4806 90.6601 98.536 90.6812 98.5906C90.7019 98.6452 90.7254 98.6986 90.7521 98.7504C90.7788 98.8026 90.8083 98.8528 90.841 98.9014C90.8733 98.9504 90.9083 98.997 90.9458 99.042C90.9832 99.087 91.0235 99.1301 91.0657 99.1703C91.1079 99.211 91.1526 99.2492 91.1992 99.2851C91.2458 99.3209 91.2944 99.354 91.3446 99.3847C91.3952 99.415 91.447 99.4429 91.5004 99.4676C91.5538 99.4923 91.6084 99.5142 91.6646 99.5333C91.7203 99.552 91.7769 99.568 91.8347 99.5807C91.8925 99.5935 91.9506 99.603 92.0092 99.6094C92.0682 99.6158 92.1271 99.619 92.1861 99.619H100.694C100.787 99.619 100.879 99.6114 100.97 99.5959C101.061 99.5799 101.15 99.5568 101.237 99.5257C101.325 99.495 101.408 99.4572 101.489 99.4118C101.569 99.3667 101.645 99.3153 101.717 99.2572C101.788 99.199 101.854 99.1353 101.914 99.0659C101.975 98.9966 102.029 98.9229 102.076 98.8444C102.123 98.7659 102.163 98.6838 102.196 98.5986C102.23 98.5133 102.255 98.426 102.273 98.3364L104.038 89.3795H110C113.371 89.3795 116.21 89.0169 118.436 88.3021C120.724 87.569 122.83 86.3255 124.694 84.6062C126.236 83.2085 127.505 81.6391 128.467 79.9409C129.429 78.2432 130.12 76.349 130.522 74.3122C131.517 69.2636 130.708 65.2211 128.118 62.2977C125.553 59.4023 121.522 57.934 116.138 57.934M103.91 81.7164H109.085C112.515 81.7164 115.07 81.0797 116.749 79.8047C118.428 78.5301 119.561 76.4024 120.149 73.4213C120.712 70.5589 120.456 68.5392 119.38 67.3623C118.304 66.1853 116.148 65.5968 112.916 65.5968H107.087L103.911 81.716M116.138 59.5194C121.06 59.5194 124.651 60.7928 126.908 63.3404C129.164 65.8876 129.844 69.4437 128.943 74.0094C128.573 75.89 127.946 77.6093 127.063 79.1676C126.181 80.7255 125.027 82.1515 123.601 83.444C121.902 85.0118 120.015 86.1287 117.938 86.7949C115.861 87.4618 113.216 87.7941 110.001 87.7941H102.713L100.695 98.0336H92.1869L99.7779 59.5194H116.139" fill="white"/>
<defs>
<radialGradient id="paint0_radial_20_312" cx="0" cy="0" r="1" gradientUnits="userSpaceOnUse" gradientTransform="translate(46.9081 51.5882) scale(97.2891 95.9378)">
<stop stop-color="#AEB2D5"/>
<stop offset="0.25" stop-color="#AEB2D5"/>
<stop offset="0.296875" stop-color="#AEB2D5"/>
<stop offset="0.300781" stop-color="#ADB1D4"/>
<stop offset="0.304688" stop-color="#ACB0D4"/>
<stop offset="0.308594" stop-color="#ACB0D3"/>
<stop offset="0.3125" stop-color="#ABAFD2"/>
<stop offset="0.316406" stop-color="#AAAED2"/>
<stop offset="0.320312" stop-color="#A9ADD1"/>
<stop offset="0.324219" stop-color="#A8ACD1"/>
<stop offset="0.328125" stop-color="#A7ABD0"/>
<stop offset="0.332031" stop-color="#A6AACF"/>
<stop offset="0.335938" stop-color="#A5A9CF"/>
<stop offset="0.339844" stop-color="#A4A9CE"/>
<stop offset="0.34375" stop-color="#A4A8CD"/>
<stop offset="0.347656" stop-color="#A3A7CD"/>
<stop offset="0.351562" stop-color="#A2A6CC"/>
<stop offset="0.355469" stop-color="#A1A5CB"/>
<stop offset="0.359375" stop-color="#A0A4CB"/>
<stop offset="0.363281" stop-color="#9FA3CA"/>
<stop offset="0.367188" stop-color="#9EA2C9"/>
<stop offset="0.371094" stop-color="#9DA1C9"/>
<stop offset="0.375" stop-color="#9CA1C8"/>
<stop offset="0.378906" stop-color="#9CA0C7"/>
<stop offset="0.382812" stop-color="#9B9FC7"/>
<stop offset="0.386719" stop-color="#9A9EC6"/>
<stop offset="0.390625" stop-color="#999DC5"/>
<stop offset="0.394531" stop-color="#989CC5"/>
<stop offset="0.398438" stop-color="#979BC4"/>
<stop offset="0.402344" stop-color="#969AC3"/>
<stop offset="0.40625" stop-color="#9599C3"/>
<stop offset="0.410156" stop-color="#9499C2"/>
<stop offset="0.414062" stop-color="#9498C1"/>
<stop offset="0.417969" stop-color="#9397C1"/>
<stop offset="0.421875" stop-color="#9296C0"/>
<stop offset="0.425781" stop-color="#9195BF"/>
<stop offset="0.429688" stop-color="#9094BF"/>
<stop offset="0.433594" stop-color="#8F93BE"/>
<stop offset="0.4375" stop-color="#8E92BD"/>
<stop offset="0.441406" stop-color="#8D91BD"/>
<stop offset="0.445312" stop-color="#8D91BC"/>
<stop offset="0.449219" stop-color="#8C90BB"/>
<stop offset="0.453125" stop-color="#8B8FBB"/>
<stop offset="0.457031" stop-color="#8A8EBA"/>
<stop offset="0.460938" stop-color="#898DB9"/>
<stop offset="0.464844" stop-color="#888CB9"/>
<stop offset="0.46875" stop-color="#878BB8"/>
<stop offset="0.472656" stop-color="#868AB7"/>
<stop offset="0.476562" stop-color="#858AB7"/>
<stop offset="0.480469" stop-color="#8589B6"/>
<stop offset="0.484375" stop-color="#8488B5"/>
<stop offset="0.488281" stop-color="#8387B5"/>
<stop offset="0.492188" stop-color="#8286B4"/>
<stop offset="0.496094" stop-color="#8185B3"/>
<stop offset="0.5" stop-color="#8084B3"/>
<stop offset="0.503906" stop-color="#7F83B2"/>
<stop offset="0.507812" stop-color="#7E82B1"/>
<stop offset="0.511719" stop-color="#7D82B1"/>
<stop offset="0.515625" stop-color="#7D81B0"/>
<stop offset="0.519531" stop-color="#7C80B0"/>
<stop offset="0.523438" stop-color="#7B7FAF"/>
<stop offset="0.527344" stop-color="#7A7EAE"/>
<stop offset="0.53125" stop-color="#797DAE"/>
<stop offset="0.535156" stop-color="#787CAD"/>
<stop offset="0.539062" stop-color="#777BAC"/>
<stop offset="0.542969" stop-color="#767AAC"/>
<stop offset="0.546875" stop-color="#767AAB"/>
<stop offset="0.550781" stop-color="#7579AA"/>
<stop offset="0.554688" stop-color="#7478AA"/>
<stop offset="0.558594" stop-color="#7377A9"/>
<stop offset="0.5625" stop-color="#7276A8"/>
<stop offset="0.566406" stop-color="#7175A8"/>
<stop offset="0.570312" stop-color="#7074A7"/>
<stop offset="0.574219" stop-color="#6F73A6"/>
<stop offset="0.578125" stop-color="#6E73A6"/>
<stop offset="0.582031" stop-color="#6E72A5"/>
<stop offset="0.585938" stop-color="#6D71A4"/>
<stop offset="0.589844" stop-color="#6C70A4"/>
<stop offset="0.59375" stop-color="#6B6FA3"/>
<stop offset="0.597656" stop-color="#6A6EA2"/>
<stop offset="0.601562" stop-color="#696DA2"/>
<stop offset="0.605469" stop-color="#686CA1"/>
<stop offset="0.609375" stop-color="#676BA0"/>
<stop offset="0.613281" stop-color="#666BA0"/>
<stop offset="0.617188" stop-color="#666A9F"/>
<stop offset="0.621094" stop-color="#65699E"/>
<stop offset="0.625" stop-color="#64689E"/>
<stop offset="0.628906" stop-color="#63679D"/>
<stop offset="0.632812" stop-color="#62669C"/>
<stop offset="0.636719" stop-color="#61659C"/>
<stop offset="0.640625" stop-color="#60649B"/>
<stop offset="0.644531" stop-color="#5F639A"/>
<stop offset="0.648438" stop-color="#5E639A"/>
<stop offset="0.652344" stop-color="#5E6299"/>
<stop offset="0.65625" stop-color="#5D6198"/>
<stop offset="0.660156" stop-color="#5C6098"/>
<stop offset="0.664062" stop-color="#5B5F97"/>
<stop offset="0.667969" stop-color="#5A5E96"/>
<stop offset="0.671875" stop-color="#595D96"/>
<stop offset="0.675781" stop-color="#585C95"/>
<stop offset="0.679688" stop-color="#575B94"/>
<stop offset="0.683594" stop-color="#575B94"/>
<stop offset="0.6875" stop-color="#565A93"/>
<stop offset="0.691406" stop-color="#555992"/>
<stop offset="0.695312" stop-color="#545892"/>
<stop offset="0.699219" stop-color="#535791"/>
<stop offset="0.703125" stop-color="#525691"/>
<stop offset="0.707031" stop-color="#515590"/>
<stop offset="0.710938" stop-color="#50548F"/>
<stop offset="0.714844" stop-color="#4F548F"/>
<stop offset="0.71875" stop-color="#4F538E"/>
<stop offset="0.722656" stop-color="#4E528D"/>
<stop offset="0.726562" stop-color="#4D518D"/>
<stop offset="0.730469" stop-color="#4C508C"/>
<stop offset="0.734375" stop-color="#4B4F8B"/>
<stop offset="0.738281" stop-color="#4A4E8B"/>
<stop offset="0.742188" stop-color="#494D8A"/>
<stop offset="0.746094" stop-color="#484C89"/>
<stop offset="1" stop-color="#484C89"/>
</radialGradient>
</defs>
</svg>
