<svg width="128" height="128" viewBox="0 0 128 128" fill="none" xmlns="http://www.w3.org/2000/svg">
<path d="M74.7149 63.9082C74.7149 64.0836 74.7106 64.2592 74.7019 64.4342C74.6933 64.6096 74.6806 64.7846 74.6633 64.9592C74.6463 65.1339 74.6246 65.3082 74.5989 65.4816C74.5733 65.6552 74.5433 65.8282 74.5089 66.0002C74.4746 66.1726 74.4363 66.3436 74.3936 66.5139C74.3509 66.6842 74.3043 66.8532 74.2533 67.0212C74.2023 67.1892 74.1473 67.3556 74.0883 67.5209C74.0289 67.6862 73.9659 67.8499 73.8989 68.0119C73.8316 68.1742 73.7606 68.3346 73.6856 68.4932C73.6106 68.6519 73.5316 68.8086 73.4489 68.9632C73.3663 69.1182 73.2799 69.2709 73.1896 69.4212C73.0993 69.5719 73.0056 69.7202 72.9079 69.8659C72.8106 70.0119 72.7096 70.1552 72.6049 70.2962C72.5006 70.4372 72.3926 70.5756 72.2813 70.7112C72.1699 70.8469 72.0553 70.9799 71.9376 71.1099C71.8196 71.2399 71.6989 71.3669 71.5746 71.4909C71.4506 71.6152 71.3236 71.7362 71.1936 71.8539C71.0636 71.9719 70.9306 72.0866 70.7953 72.1979C70.6596 72.3092 70.5213 72.4169 70.3803 72.5216C70.2393 72.6262 70.0959 72.7272 69.9499 72.8246C69.8043 72.9222 69.6559 73.0159 69.5053 73.1062C69.3549 73.1966 69.2023 73.2829 69.0476 73.3656C68.8929 73.4486 68.7363 73.5272 68.5776 73.6022C68.4189 73.6776 68.2586 73.7486 68.0966 73.8156C67.9343 73.8829 67.7706 73.9459 67.6056 74.0052C67.4403 74.0642 67.2736 74.1192 67.1059 74.1702C66.9379 74.2212 66.7689 74.2679 66.5986 74.3106C66.4283 74.3532 66.2573 74.3916 66.0853 74.4259C65.9129 74.4602 65.7403 74.4902 65.5666 74.5159C65.3933 74.5416 65.2189 74.5632 65.0443 74.5802C64.8699 74.5976 64.6949 74.6106 64.5196 74.6189C64.3443 74.6276 64.1689 74.6319 63.9936 74.6319C63.8179 74.6319 63.6426 74.6276 63.4676 74.6189C63.2923 74.6106 63.1173 74.5976 62.9426 74.5802C62.7679 74.5632 62.5939 74.5416 62.4203 74.5159C62.2469 74.4902 62.0739 74.4602 61.9019 74.4259C61.7299 74.3916 61.5586 74.3532 61.3886 74.3106C61.2183 74.2679 61.0493 74.2212 60.8813 74.1702C60.7133 74.1192 60.5469 74.0642 60.3816 74.0052C60.2163 73.9459 60.0526 73.8829 59.8906 73.8156C59.7286 73.7486 59.5683 73.6776 59.4096 73.6022C59.2509 73.5272 59.0943 73.4486 58.9396 73.3656C58.7849 73.2829 58.6323 73.1966 58.4816 73.1062C58.3313 73.0159 58.1829 72.9222 58.0369 72.8246C57.8913 72.7272 57.7476 72.6262 57.6069 72.5216C57.4659 72.4169 57.3276 72.3092 57.1919 72.1979C57.0563 72.0866 56.9236 71.9719 56.7936 71.8539C56.6636 71.7362 56.5366 71.6152 56.4123 71.4909C56.2883 71.3669 56.1673 71.2399 56.0496 71.1099C55.9316 70.9799 55.8173 70.8469 55.7059 70.7112C55.5946 70.5756 55.4866 70.4372 55.3819 70.2962C55.2776 70.1552 55.1766 70.0119 55.0789 69.8659C54.9816 69.7202 54.8876 69.5719 54.7976 69.4212C54.7073 69.2709 54.6209 69.1182 54.5383 68.9632C54.4553 68.8086 54.3766 68.6519 54.3016 68.4932C54.2266 68.3346 54.1553 68.1742 54.0883 68.0119C54.0213 67.8499 53.9579 67.6862 53.8989 67.5209C53.8396 67.3556 53.7846 67.1892 53.7339 67.0212C53.6829 66.8532 53.6359 66.6842 53.5936 66.5139C53.5509 66.3436 53.5123 66.1726 53.4783 66.0002C53.4439 65.8282 53.4139 65.6552 53.3883 65.4816C53.3626 65.3082 53.3409 65.1339 53.3239 64.9592C53.3066 64.7846 53.2936 64.6096 53.2849 64.4342C53.2766 64.2592 53.2723 64.0836 53.2723 63.9082C53.2723 63.7326 53.2766 63.5572 53.2849 63.3819C53.2936 63.2066 53.3066 63.0319 53.3239 62.8572C53.3409 62.6826 53.3626 62.5082 53.3883 62.3346C53.4139 62.1612 53.4439 61.9882 53.4783 61.8162C53.5123 61.6439 53.5509 61.4729 53.5936 61.3026C53.6359 61.1322 53.6829 60.9632 53.7339 60.7952C53.7846 60.6272 53.8396 60.4606 53.8989 60.2956C53.9579 60.1302 54.0213 59.9666 54.0883 59.8042C54.1553 59.6422 54.2266 59.4819 54.3016 59.3232C54.3766 59.1646 54.4553 59.0079 54.5383 58.8529C54.6209 58.6982 54.7073 58.5456 54.7976 58.3949C54.8876 58.2446 54.9816 58.0962 55.0789 57.9502C55.1766 57.8046 55.2776 57.6609 55.3819 57.5199C55.4866 57.3792 55.5946 57.2409 55.7059 57.1052C55.8173 56.9696 55.9316 56.8366 56.0496 56.7066C56.1673 56.5766 56.2883 56.4496 56.4123 56.3252C56.5366 56.2012 56.6636 56.0802 56.7936 55.9626C56.9236 55.8446 57.0563 55.7299 57.1919 55.6186C57.3276 55.5072 57.4659 55.3992 57.6069 55.2949C57.7476 55.1902 57.8913 55.0892 58.0369 54.9916C58.1829 54.8942 58.3313 54.8002 58.4816 54.7102C58.6323 54.6199 58.7849 54.5336 58.9396 54.4506C59.0943 54.3679 59.2509 54.2889 59.4096 54.2139C59.5683 54.1389 59.7286 54.0679 59.8906 54.0006C60.0526 53.9336 60.2163 53.8706 60.3816 53.8112C60.5469 53.7522 60.7133 53.6972 60.8813 53.6462C61.0493 53.5952 61.2183 53.5486 61.3886 53.5059C61.5586 53.4632 61.7299 53.4246 61.9019 53.3906C62.0739 53.3562 62.2469 53.3262 62.4203 53.3006C62.5939 53.2749 62.7679 53.2532 62.9426 53.2359C63.1173 53.2189 63.2923 53.2059 63.4676 53.1972C63.6426 53.1886 63.8179 53.1846 63.9936 53.1846C64.1689 53.1846 64.3443 53.1886 64.5196 53.1972C64.6949 53.2059 64.8699 53.2189 65.0443 53.2359C65.2189 53.2532 65.3933 53.2749 65.5666 53.3006C65.7403 53.3262 65.9129 53.3562 66.0853 53.3906C66.2573 53.4246 66.4283 53.4632 66.5986 53.5059C66.7689 53.5486 66.9379 53.5952 67.1059 53.6462C67.2736 53.6972 67.4403 53.7522 67.6056 53.8112C67.7706 53.8706 67.9343 53.9336 68.0966 54.0006C68.2586 54.0679 68.4189 54.1389 68.5776 54.2139C68.7363 54.2889 68.8929 54.3679 69.0476 54.4506C69.2023 54.5332 69.3549 54.6199 69.5053 54.7102C69.6559 54.8002 69.8043 54.8942 69.9499 54.9916C70.0959 55.0892 70.2393 55.1902 70.3803 55.2949C70.5213 55.3992 70.6596 55.5072 70.7953 55.6186C70.9306 55.7299 71.0636 55.8446 71.1936 55.9622C71.3236 56.0802 71.4506 56.2012 71.5746 56.3252C71.6989 56.4496 71.8196 56.5766 71.9376 56.7066C72.0553 56.8366 72.1699 56.9696 72.2813 57.1052C72.3926 57.2409 72.5006 57.3792 72.6049 57.5199C72.7096 57.6609 72.8106 57.8046 72.9079 57.9502C73.0056 58.0962 73.0993 58.2446 73.1896 58.3952C73.2799 58.5456 73.3663 58.6982 73.4489 58.8529C73.5316 59.0079 73.6106 59.1646 73.6856 59.3232C73.7606 59.4819 73.8316 59.6422 73.8989 59.8042C73.9659 59.9666 74.0289 60.1302 74.0883 60.2956C74.1473 60.4606 74.2023 60.6272 74.2533 60.7952C74.3043 60.9632 74.3509 61.1322 74.3936 61.3026C74.4363 61.4729 74.4746 61.6439 74.5089 61.8162C74.5433 61.9882 74.5733 62.1612 74.5989 62.3346C74.6246 62.5082 74.6463 62.6826 74.6633 62.8572C74.6806 63.0319 74.6933 63.2066 74.7019 63.3819C74.7106 63.5572 74.7149 63.7326 74.7149 63.9082Z" fill="#00D8FF"/>
<mask id="mask0_15_101" style="mask-type:luminance" maskUnits="userSpaceOnUse" x="3" y="13" width="122" height="103">
<path d="M3.96112 13.057H124.025V115.03H3.96112V13.057Z" fill="white"/>
</mask>
<g mask="url(#mask0_15_101)">
<path d="M63.9939 42.1035C78.3889 42.1035 91.7616 44.1695 101.845 47.6415C113.993 51.8249 121.462 58.1655 121.462 63.9072C121.462 69.8902 113.547 76.6265 100.501 80.9499C90.6379 84.2185 77.6589 85.9245 63.9939 85.9245C49.9842 85.9245 36.7179 84.3232 26.7436 80.9142C14.1249 76.5999 6.52423 69.7765 6.52423 63.9072C6.52423 58.2122 13.6559 51.9202 25.6336 47.7432C35.7539 44.2142 49.4562 42.1035 63.9929 42.1035H63.9939Z" stroke="#00D8FF" stroke-width="7.47646"/>
</g>
<mask id="mask1_15_101" style="mask-type:luminance" maskUnits="userSpaceOnUse" x="3" y="7" width="122" height="114">
<path d="M3.961 7.78259H124.025V120.231H3.961V7.78259Z" fill="white"/>
</mask>
<g mask="url(#mask1_15_101)">
<path d="M45.0183 53.0662C52.2096 40.5939 60.6793 30.0399 68.7233 23.0372C78.4153 14.6012 87.6369 11.2972 92.6103 14.1652C97.7923 17.1542 99.6716 27.3789 96.8986 40.8429C94.8043 51.0215 89.7963 63.1189 82.9696 74.9592C75.9706 87.0982 67.9563 97.7932 60.0213 104.73C49.9809 113.509 40.2739 116.686 35.1919 113.753C30.2593 110.91 28.3733 101.586 30.7393 89.1215C32.7386 78.5895 37.7559 65.6632 45.0153 53.0685L45.0183 53.0662Z" stroke="#00D8FF" stroke-width="7.47646"/>
<path d="M45.0356 74.9904C37.8249 62.532 32.9139 49.9204 30.8642 39.4524C28.3972 26.8404 30.1416 17.1977 35.1096 14.3204C40.2866 11.3227 50.0812 14.8 60.3576 23.9267C68.1276 30.827 76.1059 41.2067 82.9516 53.0347C89.9706 65.162 95.2316 77.4484 97.2779 87.788C99.8676 100.873 97.7715 110.87 92.6932 113.811C87.7655 116.665 78.7482 113.644 69.1332 105.368C61.0096 98.3757 52.3179 87.5717 45.0349 74.988L45.0356 74.9904Z" stroke="#00D8FF" stroke-width="7.47646"/>
</g>
</svg>
